<svg xmlns="http://www.w3.org/2000/svg" preserveAspectRatio="xMidYMid meet" viewBox="0 0 95 95" fill="none">
    <path d="M67.639 5.77715C73.6216 8.77786 78.8878 13.0475 83.0758 18.2926L74.2382 25.4478C71.0761 21.4876 67.1 18.2639 62.583 15.9983C58.0661 13.7327 53.1155 12.4789 48.0715 12.3232C43.0276 12.1674 38.01 13.1134 33.3637 15.0961C28.7174 17.0788 24.5525 20.0511 21.1555 23.8088L12.7698 16.1218C17.269 11.1449 22.7852 7.2082 28.9391 4.58222C35.093 1.95624 41.7386 0.703323 48.4191 0.909595C55.0996 1.11587 61.6565 2.77644 67.639 5.77715Z" fill="#9095A3"/>
    <path d="M82.3161 77.634C77.7835 83.0203 72.0951 87.2994 65.6801 90.1484L61.104 79.7005C65.9474 77.5495 70.2423 74.3186 73.6645 70.2519C77.0867 66.1851 79.5468 61.3886 80.8591 56.2246C82.1714 51.0605 82.3016 45.6637 81.2399 40.4416C80.1782 35.2194 77.9524 30.3083 74.7303 26.079L83.7277 19.1287C87.9952 24.7303 90.9433 31.2348 92.3494 38.1514C93.7556 45.0679 93.5832 52.2157 91.8451 59.0554C90.107 65.895 86.8487 72.2477 82.3161 77.634Z" fill="#D4D8DD"/>
    <path d="M1.25502 54.6309C2.32761 61.6078 4.96007 68.2482 8.95371 74.0509C12.9474 79.8536 18.1978 84.667 24.3088 88.1278C30.4198 91.5886 37.2317 93.6064 44.2303 94.0288C51.2289 94.4512 58.2314 93.2672 64.7091 90.5663L60.3708 80.016C55.4799 82.0553 50.1929 82.9492 44.9088 82.6303C39.6247 82.3114 34.4816 80.7879 29.8676 78.1749C25.2537 75.562 21.2895 71.9277 18.2742 67.5465C15.2589 63.1654 13.2713 58.1517 12.4615 52.884L1.25502 54.6309Z" fill="#EBEEF1"/>
    <path d="M2.70931 33.9489C4.60936 27.6519 7.81205 21.8316 12.1067 16.8707L20.6547 24.3742C17.4121 28.1197 14.994 32.5143 13.5595 37.2686C12.1249 42.0229 11.7064 47.0292 12.3314 51.9581L1.08286 53.4046C0.254963 46.8764 0.809275 40.2458 2.70931 33.9489Z" fill="#BDC6CE"/>
</svg>
