<svg preserveAspectRatio="xMidYMid meet" viewBox="0 0 80 80" fill="none" xmlns="http://www.w3.org/2000/svg">
    <path d="M14.2188 11.125H65.7812V62.6875H14.2188V11.125Z" fill="#9BB2F9"/>
    <path d="M41.5731 51.7346C41.9887 51.6776 42.3681 51.5802 42.7116 51.4423C43.3043 51.2072 43.7633 50.8803 44.0885 50.4616C44.4138 50.0428 44.5764 49.5616 44.5764 49.018C44.5764 48.5111 44.4283 48.085 44.1319 47.7398C43.8428 47.3945 43.4163 47.1006 42.8525 46.8582C42.4821 46.6969 42.0556 46.5453 41.5731 46.4035V51.7346Z" fill="#3C538F"/>
    <path d="M39.795 41.6801V36.6492C39.4165 36.7032 39.0767 36.793 38.7758 36.9187C38.2481 37.1318 37.8434 37.4293 37.5615 37.8113C37.2868 38.1933 37.1495 38.6267 37.1495 39.1116C37.135 39.5156 37.2181 39.8682 37.3988 40.1694C37.5868 40.4706 37.8434 40.7314 38.1686 40.9518C38.4939 41.1649 38.8698 41.3522 39.2962 41.5138C39.4583 41.5724 39.6246 41.6279 39.795 41.6801Z" fill="#3C538F"/>
    <path fill-rule="evenodd" clip-rule="evenodd" d="M73 21.4375H7V68.875H73V21.4375ZM39.795 55.7704V58.2964H41.5731V55.7722C43.0071 55.6959 44.2576 55.428 45.3246 54.9685C46.6112 54.4102 47.5942 53.6278 48.2737 52.6214C48.9603 51.6076 49.3073 50.4101 49.3145 49.029C49.3073 48.0887 49.1374 47.2549 48.8049 46.5276C48.4797 45.8004 48.0207 45.1686 47.428 44.6323C46.8352 44.096 46.1341 43.6442 45.3246 43.2769C44.515 42.9096 43.6259 42.6157 42.6574 42.3954L41.5731 42.1318V36.6412C42.3061 36.7378 42.9133 36.9662 43.3946 37.3264C44.0524 37.8186 44.4246 38.5092 44.5114 39.3981H49.0109C48.9892 38.0537 48.6351 36.871 47.9484 35.8498C47.2617 34.8287 46.3004 34.0316 45.0643 33.4586C44.0449 32.9832 42.8811 32.705 41.5731 32.6241V30.0867H39.795V32.6337C38.5566 32.7257 37.429 33.0006 36.4122 33.4586C35.14 34.0316 34.1389 34.8287 33.4089 35.8498C32.6861 36.871 32.3283 38.0647 32.3355 39.4311C32.3283 41.0987 32.8668 42.4247 33.951 43.4091C35.0352 44.3935 36.5134 45.1171 38.3855 45.58L39.795 45.9397V51.7459C39.3166 51.6882 38.872 51.5797 38.4614 51.4203C37.8253 51.1631 37.3157 50.7848 36.9326 50.2853C36.5568 49.7784 36.3435 49.1466 36.2929 48.3899H31.75C31.7861 50.0134 32.1728 51.3762 32.9101 52.4781C33.6546 53.5727 34.6883 54.3992 36.011 54.9575C37.1134 55.4203 38.3747 55.6912 39.795 55.7704Z" fill="#3C538F"/>
</svg>
