<svg xmlns="http://www.w3.org/2000/svg" preserveAspectRatio="xMidYMid meet" viewBox="0 0 32 32" fill="none">
    <path d="M15.3337 5.33335H16.667V26.6667H15.3337V5.33335Z" fill="#3C538F"/>
    <path d="M5.33366 15.3334H26.667V16.6667H5.33366V15.3334Z" fill="#3C538F"/>
    <path d="M7.98632 8.92915L8.9291 7.98633L24.0139 23.0711L23.0711 24.0139L7.98632 8.92915Z" fill="#9BB2F9"/>
    <path d="M7.98632 23.0709L23.0711 7.98611L24.0139 8.92892L8.9291 24.0137L7.98632 23.0709Z" fill="#9BB2F9"/>
    <path d="M10.667 16C10.667 17.4145 11.2289 18.7711 12.2291 19.7713C13.2293 20.7715 14.5858 21.3334 16.0003 21.3334C17.4148 21.3334 18.7714 20.7715 19.7716 19.7713C20.7718 18.7711 21.3337 17.4145 21.3337 16C21.3337 14.5855 20.7718 13.229 19.7716 12.2288C18.7714 11.2286 17.4148 10.6667 16.0003 10.6667C14.5858 10.6667 13.2293 11.2286 12.2291 12.2288C11.2289 13.229 10.667 14.5855 10.667 16Z"
          fill="#3C538F"/>
    <path d="M13.3337 5.33335C13.3337 6.0406 13.6146 6.71887 14.1147 7.21897C14.6148 7.71907 15.2931 8.00002 16.0003 8.00002C16.7076 8.00002 17.3858 7.71907 17.8859 7.21897C18.386 6.71887 18.667 6.0406 18.667 5.33335C18.667 4.62611 18.386 3.94783 17.8859 3.44774C17.3858 2.94764 16.7076 2.66669 16.0003 2.66669C15.2931 2.66669 14.6148 2.94764 14.1147 3.44774C13.6146 3.94783 13.3337 4.62611 13.3337 5.33335Z"
          fill="#3C538F"/>
    <path d="M20.8761 8.45753C20.8761 9.16477 21.1571 9.84305 21.6572 10.3431C22.1573 10.8432 22.8356 11.1242 23.5428 11.1242C24.2501 11.1242 24.9283 10.8432 25.4284 10.3431C25.9285 9.84305 26.2095 9.16477 26.2095 8.45753C26.2095 7.75028 25.9285 7.07201 25.4284 6.57191C24.9283 6.07181 24.2501 5.79086 23.5428 5.79086C22.8356 5.79086 22.1573 6.07181 21.6572 6.57191C21.1571 7.07201 20.8761 7.75028 20.8761 8.45753Z"
          fill="#9BB2F9"/>
    <path d="M24.0003 16C24.0003 16.7073 24.2813 17.3855 24.7814 17.8856C25.2815 18.3857 25.9597 18.6667 26.667 18.6667C27.3742 18.6667 28.0525 18.3857 28.5526 17.8856C29.0527 17.3855 29.3337 16.7073 29.3337 16C29.3337 15.2928 29.0527 14.6145 28.5526 14.1144C28.0525 13.6143 27.3742 13.3334 26.667 13.3334C25.9597 13.3334 25.2815 13.6143 24.7814 14.1144C24.2813 14.6145 24.0003 15.2928 24.0003 16Z"
          fill="#3C538F"/>
    <path d="M20.8761 23.5425C20.8761 24.2498 21.1571 24.928 21.6572 25.4281C22.1573 25.9282 22.8356 26.2092 23.5428 26.2092C24.2501 26.2092 24.9283 25.9282 25.4284 25.4281C25.9285 24.928 26.2095 24.2498 26.2095 23.5425C26.2095 22.8353 25.9285 22.157 25.4284 21.6569C24.9283 21.1568 24.2501 20.8758 23.5428 20.8758C22.8356 20.8758 22.1573 21.1568 21.6572 21.6569C21.1571 22.157 20.8761 22.8353 20.8761 23.5425Z"
          fill="#9BB2F9"/>
    <path d="M13.3337 26.6667C13.3337 27.3739 13.6146 28.0522 14.1147 28.5523C14.6148 29.0524 15.2931 29.3334 16.0003 29.3334C16.7076 29.3334 17.3858 29.0524 17.8859 28.5523C18.386 28.0522 18.667 27.3739 18.667 26.6667C18.667 25.9594 18.386 25.2812 17.8859 24.7811C17.3858 24.281 16.7076 24 16.0003 24C15.2931 24 14.6148 24.281 14.1147 24.7811C13.6146 25.2812 13.3337 25.9594 13.3337 26.6667Z"
          fill="#3C538F"/>
    <path d="M5.79117 23.5425C5.79117 24.2498 6.07212 24.928 6.57222 25.4281C7.07231 25.9282 7.75059 26.2092 8.45783 26.2092C9.16508 26.2092 9.84336 25.9282 10.3435 25.4281C10.8435 24.928 11.1245 24.2498 11.1245 23.5425C11.1245 22.8353 10.8435 22.157 10.3435 21.6569C9.84336 21.1568 9.16508 20.8758 8.45783 20.8758C7.75059 20.8758 7.07231 21.1568 6.57222 21.6569C6.07212 22.157 5.79117 22.8353 5.79117 23.5425Z"
          fill="#9BB2F9"/>
    <path d="M2.66699 16C2.66699 16.7073 2.94794 17.3855 3.44804 17.8856C3.94814 18.3857 4.62641 18.6667 5.33366 18.6667C6.0409 18.6667 6.71918 18.3857 7.21928 17.8856C7.71937 17.3855 8.00033 16.7073 8.00033 16C8.00033 15.2928 7.71937 14.6145 7.21928 14.1144C6.71918 13.6143 6.0409 13.3334 5.33366 13.3334C4.62641 13.3334 3.94814 13.6143 3.44804 14.1144C2.94794 14.6145 2.66699 15.2928 2.66699 16Z"
          fill="#3C538F"/>
    <path d="M5.79117 8.45753C5.79117 9.16477 6.07212 9.84305 6.57222 10.3431C7.07231 10.8432 7.75059 11.1242 8.45783 11.1242C9.16508 11.1242 9.84336 10.8432 10.3435 10.3431C10.8435 9.84305 11.1245 9.16477 11.1245 8.45753C11.1245 7.75028 10.8435 7.07201 10.3435 6.57191C9.84336 6.07181 9.16508 5.79086 8.45783 5.79086C7.75059 5.79086 7.07231 6.07181 6.57222 6.57191C6.07212 7.07201 5.79117 7.75028 5.79117 8.45753Z"
          fill="#9BB2F9"/>
</svg>
