<svg preserveAspectRatio="xMidYMid meet" viewBox="0 0 152 32" fill="none" xmlns="http://www.w3.org/2000/svg">
    <path d="M27.9998 15.9999L13.9999 29.9998L0 15.9999L13.9999 2L27.9998 15.9999Z" fill="#3C538F"/>
    <path d="M23.2 20.7997L13.9999 29.9998L4.26689 20.2664L13.6002 10.9331L23.2 20.7997Z" fill="#9BB2F9"/>
    <path d="M18.9332 25.066L13.9999 29.9998L9.33342 25.3332L14.2666 20.3994L18.9332 25.066Z" fill="#3C538F"/>
    <path d="M44.9134 16.2475C44.5852 16.6378 44.1052 16.9513 43.4731 17.1879C42.8533 17.4127 42.1241 17.525 41.2854 17.525H39.1706V22.4579H36.6V10.0726H41.2854C42.7561 10.0726 43.8864 10.4334 44.6764 11.1549C45.4786 11.8647 45.8796 12.7046 45.8796 13.6746C45.8796 14.6446 45.5576 15.5022 44.9134 16.2475ZM39.1706 15.6087H41.2854C41.9296 15.6087 42.4218 15.449 42.7621 15.1296C43.1025 14.7984 43.2726 14.3548 43.2726 13.7988C43.2726 13.2428 43.1025 12.8051 42.7621 12.4857C42.4218 12.1545 41.9296 11.9889 41.2854 11.9889H39.1706V15.6087Z"
          fill="#303D6C"/>
    <path d="M52.3012 20.4883C53.0183 20.4883 53.6321 20.2339 54.1426 19.7253C54.6652 19.2048 54.9265 18.4773 54.9265 17.5428C54.9265 16.5964 54.6713 15.8689 54.1608 15.3603C53.6503 14.8516 53.0305 14.5973 52.3012 14.5973C51.5842 14.5973 50.9765 14.8516 50.4781 15.3603C49.9798 15.8689 49.7307 16.5964 49.7307 17.5428C49.7307 18.4891 49.9798 19.2166 50.4781 19.7253C50.9765 20.2339 51.5842 20.4883 52.3012 20.4883ZM48.6003 21.198C47.6159 20.2635 47.1236 19.0392 47.1236 17.525C47.1236 16.0109 47.6219 14.7925 48.6186 13.8698C49.6152 12.9471 50.8488 12.4857 52.3195 12.4857C53.8023 12.4857 55.042 12.9471 56.0386 13.8698C57.0352 14.7925 57.5336 16.0109 57.5336 17.525C57.5336 19.0392 57.0292 20.2635 56.0204 21.198C55.0237 22.1326 53.784 22.5998 52.3012 22.5998C50.8185 22.5998 49.5848 22.1326 48.6003 21.198Z"
          fill="#303D6C"/>
    <path d="M62.4109 10.1258C62.4109 10.5517 62.259 10.9124 61.9552 11.2082C61.6513 11.5039 61.2806 11.6518 60.8431 11.6518C60.4177 11.6518 60.053 11.5039 59.7492 11.2082C59.4453 10.9124 59.2934 10.5517 59.2934 10.1258C59.2934 9.69994 59.4453 9.33914 59.7492 9.04341C60.053 8.74768 60.4177 8.59981 60.8431 8.59981C61.2806 8.59981 61.6513 8.74768 61.9552 9.04341C62.259 9.33914 62.4109 9.69994 62.4109 10.1258ZM59.5669 22.4579V12.6277H62.1375V22.4579H59.5669Z"
          fill="#303D6C"/>
    <path d="M67.443 12.6277V14.1004C68.0871 13.024 69.1324 12.4857 70.5787 12.4857C71.7334 12.4857 72.6753 12.8584 73.4045 13.6036C74.1338 14.337 74.4984 15.3603 74.4984 16.6733V22.4579H71.9461V17.0282C71.9461 16.2593 71.7455 15.6737 71.3444 15.2715C70.9433 14.8575 70.3964 14.6505 69.7036 14.6505C69.0108 14.6505 68.4578 14.8575 68.0446 15.2715C67.6435 15.6737 67.443 16.2593 67.443 17.0282V22.4579H64.8724V12.6277H67.443Z"
          fill="#303D6C"/>
    <path d="M81.0589 20.3641H82.2803V22.4579H80.6578C79.6247 22.4579 78.8286 22.2272 78.2695 21.7658C77.7104 21.3045 77.4309 20.5415 77.4309 19.4769V14.6683H76.3553V12.6277H77.4309V10.1968H80.0015V12.6277H82.2621V14.6683H80.0015V19.4769C80.0015 19.7963 80.0805 20.0269 80.2385 20.1689C80.3965 20.299 80.6699 20.3641 81.0589 20.3641Z"
          fill="#303D6C"/>
    <path d="M94.2291 20.4883C94.9462 20.4883 95.5599 20.2339 96.0704 19.7253C96.593 19.2048 96.8544 18.4773 96.8544 17.5428C96.8544 16.5964 96.5991 15.8689 96.0886 15.3603C95.5782 14.8516 94.9583 14.5973 94.2291 14.5973C93.512 14.5973 92.9043 14.8516 92.406 15.3603C91.9077 15.8689 91.6585 16.5964 91.6585 17.5428C91.6585 18.4891 91.9077 19.2166 92.406 19.7253C92.9043 20.2339 93.512 20.4883 94.2291 20.4883ZM90.5282 21.198C89.5437 20.2635 89.0515 19.0392 89.0515 17.525C89.0515 16.0109 89.5498 14.7925 90.5464 13.8698C91.543 12.9471 92.7767 12.4857 94.2473 12.4857C95.7301 12.4857 96.9698 12.9471 97.9664 13.8698C98.9631 14.7925 99.4614 16.0109 99.4614 17.525C99.4614 19.0392 98.957 20.2635 97.9482 21.198C96.9516 22.1326 95.7119 22.5998 94.2291 22.5998C92.7463 22.5998 91.5127 22.1326 90.5282 21.198Z"
          fill="#303D6C"/>
    <path d="M105.815 12.6277V14.6683H104.211V22.4579H101.659V14.6683H100.565V12.6277H101.659V12.0776C101.659 10.8947 101.981 10.0312 102.625 9.48701C103.269 8.94286 104.284 8.67079 105.67 8.67079V10.7646C105.135 10.7646 104.758 10.8651 104.539 11.0662C104.321 11.2673 104.211 11.6045 104.211 12.0776V12.6277H105.815Z"
          fill="#303D6C"/>
    <path d="M117.17 11.9002C116.659 11.9002 116.24 12.0303 115.912 12.2906C115.596 12.539 115.438 12.8879 115.438 13.3375C115.438 13.787 115.553 14.1418 115.784 14.4021C116.027 14.6505 116.343 14.8457 116.732 14.9876C117.121 15.1178 117.546 15.2361 118.008 15.3425C118.47 15.449 118.932 15.5791 119.394 15.7329C119.856 15.8867 120.281 16.0759 120.67 16.3007C121.059 16.5255 121.369 16.8567 121.6 17.2944C121.843 17.7202 121.964 18.2407 121.964 18.8558C121.964 19.8732 121.545 20.7485 120.706 21.4819C119.88 22.2154 118.774 22.5821 117.388 22.5821C116.015 22.5821 114.903 22.2686 114.052 21.6416C113.201 21.0029 112.776 20.1097 112.776 18.9623H115.511C115.608 20.0506 116.246 20.5947 117.425 20.5947C118.008 20.5947 118.47 20.4469 118.81 20.1511C119.151 19.8554 119.321 19.465 119.321 18.98C119.321 18.4832 119.096 18.0928 118.646 17.8089C118.197 17.525 117.65 17.3121 117.005 17.1702C116.373 17.0282 115.735 16.8567 115.091 16.6556C114.447 16.4545 113.9 16.1055 113.45 15.6087C113.001 15.1 112.776 14.4317 112.776 13.6036C112.776 12.4798 113.195 11.5808 114.034 10.9065C114.872 10.2323 115.948 9.89512 117.261 9.89512C118.586 9.89512 119.649 10.1909 120.451 10.7823C121.253 11.362 121.691 12.2492 121.764 13.4439H118.956C118.908 12.9707 118.725 12.5981 118.409 12.326C118.093 12.0421 117.68 11.9002 117.17 11.9002Z"
          fill="#303D6C"/>
    <path d="M130.862 19.6721C131.396 19.1516 131.664 18.4418 131.664 17.5428C131.664 16.6437 131.396 15.9399 130.862 15.4312C130.327 14.9108 129.701 14.6505 128.984 14.6505C128.267 14.6505 127.641 14.9048 127.106 15.4135C126.583 15.9222 126.322 16.626 126.322 17.525C126.322 18.4241 126.589 19.1338 127.124 19.6543C127.659 20.1748 128.279 20.435 128.984 20.435C129.701 20.435 130.327 20.1807 130.862 19.6721ZM125.064 21.1803C124.165 20.2221 123.715 19.0037 123.715 17.525C123.715 16.0464 124.165 14.8398 125.064 13.9053C125.963 12.9589 127.106 12.4857 128.491 12.4857C129.877 12.4857 130.934 13.0417 131.664 14.1537V12.6277H134.216V22.4579H131.664V20.8077C130.898 22.0024 129.835 22.5998 128.473 22.5998C127.112 22.5998 125.976 22.1266 125.064 21.1803Z"
          fill="#303D6C"/>
    <path d="M136.942 22.4579V9.32732H139.513V22.4579H136.942Z" fill="#303D6C"/>
    <path d="M146.514 22.5998C145.043 22.5998 143.846 22.1385 142.922 21.2158C141.998 20.2813 141.536 19.051 141.536 17.525C141.536 15.9991 141.998 14.7806 142.922 13.8698C143.858 12.9471 145.061 12.4857 146.532 12.4857C148.015 12.4857 149.23 12.9353 150.178 13.8343C151.126 14.7215 151.6 15.9103 151.6 17.4008C151.6 17.7439 151.576 18.0633 151.527 18.359H144.162C144.223 18.9978 144.466 19.5124 144.891 19.9027C145.316 20.2931 145.857 20.4883 146.514 20.4883C147.401 20.4883 148.057 20.1334 148.483 19.4236H151.254C150.962 20.3582 150.397 21.1211 149.558 21.7126C148.72 22.3041 147.705 22.5998 146.514 22.5998ZM148.938 16.7443C148.902 16.0937 148.653 15.5732 148.191 15.1828C147.741 14.7925 147.194 14.5973 146.55 14.5973C145.906 14.5973 145.365 14.7925 144.927 15.1828C144.502 15.5732 144.247 16.0937 144.162 16.7443H148.938Z"
          fill="#303D6C"/>
</svg>
