<svg preserveAspectRatio="xMidYMid meet" viewBox="0 0 195 32" fill="none" xmlns="http://www.w3.org/2000/svg">
    <path d="M23.3438 3.67969C21.9112 3.67969 20.75 4.84094 20.75 6.27344V26.375C20.75 27.5034 19.8122 28.3203 18.8194 28.3203H3.89062V6.27344C3.89062 4.70938 5.1875 3.67969 6.48438 3.67969H23.3438Z"
          fill="#3C538F"/>
    <path d="M20.75 6.27344C20.75 4.84094 21.9112 3.67969 23.3438 3.67969C24.7763 3.67969 25.9375 4.84094 25.9375 6.27344V8.86719H20.75V6.27344Z"
          fill="#9BB2F9"/>
    <path d="M19.6691 28.1181C19.4049 28.2492 19.1143 28.3186 18.8194 28.3203L19.7847 28.32H1.94531C0.870937 28.3203 0 27.4494 0 26.375V24.4297H16.8594V26.375C16.8594 27.4494 17.7303 28.3203 18.8047 28.3203C19.1153 28.3203 19.4084 28.2475 19.6691 28.1181Z"
          fill="#9BB2F9"/>
    <path d="M11.6719 10.1641H18.1562V12.7578H11.6719V10.1641ZM6.48438 15.3516H18.1562V17.9453H6.48438V15.3516Z"
          fill="#9BB2F9"/>
    <path d="M38.5604 19.1384H40.3249C41.6727 19.1384 42.7204 18.7482 43.4679 17.9678C44.2153 17.1874 44.5891 16.1308 44.5891 14.7981C44.5891 13.4654 44.2153 12.4088 43.4679 11.6284C42.7204 10.848 41.6727 10.4578 40.3249 10.4578H38.5604V19.1384ZM40.3249 8.49479C42.3834 8.49479 44.0438 9.07109 45.3059 10.2237C46.5803 11.3763 47.2174 12.9011 47.2174 14.7981C47.2174 16.6951 46.5803 18.2139 45.3059 19.3545C44.0438 20.4951 42.3834 21.0654 40.3249 21.0654H35.9688V8.49479H40.3249Z"
          fill="#303D6C"/>
    <path d="M53.2214 19.0664C53.9444 19.0664 54.5632 18.8082 55.0778 18.2919C55.6047 17.7637 55.8682 17.0253 55.8682 16.0768C55.8682 15.1163 55.6109 14.3779 55.0962 13.8616C54.5816 13.3453 53.9566 13.0872 53.2214 13.0872C52.4985 13.0872 51.8858 13.3453 51.3834 13.8616C50.881 14.3779 50.6298 15.1163 50.6298 16.0768C50.6298 17.0373 50.881 17.7757 51.3834 18.2919C51.8858 18.8082 52.4985 19.0664 53.2214 19.0664ZM49.4903 19.7867C48.4977 18.8382 48.0015 17.5956 48.0015 16.0588C48.0015 14.522 48.5039 13.2853 49.5086 12.3488C50.5134 11.4123 51.7571 10.9441 53.2398 10.9441C54.7347 10.9441 55.9846 11.4123 56.9894 12.3488C57.9942 13.2853 58.4966 14.522 58.4966 16.0588C58.4966 17.5956 57.988 18.8382 56.971 19.7867C55.9662 20.7352 54.7164 21.2095 53.2214 21.2095C51.7265 21.2095 50.4828 20.7352 49.4903 19.7867Z"
          fill="#303D6C"/>
    <path d="M60.6752 19.8047C59.7439 18.8682 59.2783 17.6256 59.2783 16.0768C59.2783 14.528 59.7439 13.2853 60.6752 12.3488C61.6064 11.4123 62.8134 10.9441 64.2961 10.9441C65.5337 10.9441 66.5691 11.2382 67.4023 11.8265C68.2356 12.4148 68.7931 13.2493 69.0749 14.3299H66.2811C65.9503 13.5014 65.2886 13.0872 64.2961 13.0872C63.5486 13.0872 62.9604 13.3573 62.5316 13.8976C62.115 14.4259 61.9067 15.1523 61.9067 16.0768C61.9067 17.0013 62.115 17.7337 62.5316 18.2739C62.9604 18.8022 63.5486 19.0664 64.2961 19.0664C65.2764 19.0664 65.938 18.6461 66.2811 17.8057H69.0749C68.7808 18.8502 68.2111 19.6787 67.3656 20.291C66.5323 20.9033 65.5092 21.2095 64.2961 21.2095C62.8134 21.2095 61.6064 20.7412 60.6752 19.8047Z"
          fill="#303D6C"/>
    <path d="M77.4859 11.0882H80.0775V21.0654H77.4859V19.5526C76.8364 20.6452 75.7765 21.1915 74.3061 21.1915C73.1543 21.1915 72.2108 20.8193 71.4756 20.0749C70.7403 19.3185 70.3727 18.2739 70.3727 16.9412V11.0882H72.946V16.581C72.946 17.3615 73.1481 17.9618 73.5525 18.382C73.9569 18.8022 74.5083 19.0123 75.2067 19.0123C75.9052 19.0123 76.4566 18.8022 76.8609 18.382C77.2776 17.9618 77.4859 17.3615 77.4859 16.581V11.0882Z"
          fill="#303D6C"/>
    <path d="M84.872 11.0882V12.5829C85.5214 11.4904 86.5752 10.9441 88.0334 10.9441C88.8053 10.9441 89.4915 11.1182 90.092 11.4663C90.7046 11.8145 91.1764 12.3128 91.5072 12.9611C91.8626 12.3368 92.3466 11.8445 92.9593 11.4844C93.5842 11.1242 94.2826 10.9441 95.0546 10.9441C96.2677 10.9441 97.2419 11.3163 97.9771 12.0607C98.7245 12.8051 99.0983 13.8496 99.0983 15.1943V21.0654H96.525V15.5545C96.525 14.7741 96.3228 14.1798 95.9185 13.7716C95.5141 13.3513 94.9627 13.1412 94.2643 13.1412C93.5658 13.1412 93.0083 13.3513 92.5917 13.7716C92.1873 14.1798 91.9851 14.7741 91.9851 15.5545V21.0654H89.4119V15.5545C89.4119 14.7741 89.2097 14.1798 88.8053 13.7716C88.401 13.3513 87.8496 13.1412 87.1511 13.1412C86.4527 13.1412 85.8952 13.3513 85.4785 13.7716C85.0742 14.1798 84.872 14.7741 84.872 15.5545V21.0654H82.2804V11.0882H84.872Z"
          fill="#303D6C"/>
    <path d="M105.505 21.2095C104.022 21.2095 102.815 20.7412 101.884 19.8047C100.953 18.8562 100.487 17.6076 100.487 16.0588C100.487 14.51 100.953 13.2733 101.884 12.3488C102.828 11.4123 104.041 10.9441 105.523 10.9441C107.018 10.9441 108.244 11.4003 109.199 12.3128C110.155 13.2133 110.633 14.4199 110.633 15.9327C110.633 16.2809 110.609 16.6051 110.56 16.9052H103.134C103.195 17.5536 103.44 18.0758 103.869 18.472C104.298 18.8682 104.843 19.0664 105.505 19.0664C106.4 19.0664 107.061 18.7062 107.49 17.9858H110.284C109.99 18.9343 109.42 19.7087 108.575 20.309C107.729 20.9093 106.706 21.2095 105.505 21.2095ZM107.95 15.2664C107.913 14.606 107.662 14.0777 107.196 13.6815C106.743 13.2853 106.191 13.0872 105.542 13.0872C104.892 13.0872 104.347 13.2853 103.906 13.6815C103.477 14.0777 103.22 14.606 103.134 15.2664H107.95Z"
          fill="#303D6C"/>
    <path d="M114.714 11.0882V12.5829C115.363 11.4904 116.417 10.9441 117.875 10.9441C119.039 10.9441 119.989 11.3223 120.724 12.0787C121.459 12.8231 121.827 13.8616 121.827 15.1943V21.0654H119.254V15.5545C119.254 14.7741 119.052 14.1798 118.647 13.7716C118.243 13.3513 117.692 13.1412 116.993 13.1412C116.295 13.1412 115.737 13.3513 115.32 13.7716C114.916 14.1798 114.714 14.7741 114.714 15.5545V21.0654H112.122V11.0882H114.714Z"
          fill="#303D6C"/>
    <path d="M127.89 18.9403H129.121V21.0654H127.485C126.444 21.0654 125.641 20.8313 125.078 20.363C124.514 19.8948 124.232 19.1204 124.232 18.0398V13.1592H123.148V11.0882H124.232V8.62085H126.824V11.0882H129.103V13.1592H126.824V18.0398C126.824 18.364 126.903 18.5981 127.063 18.7422C127.222 18.8742 127.498 18.9403 127.89 18.9403Z"
          fill="#303D6C"/>
    <path d="M142.951 8.45877V10.4038H138.135V13.6995H142.399V15.6445H138.135V19.1204H142.951V21.0654H135.543V8.45877H142.951Z"
          fill="#303D6C"/>
    <path d="M147.635 11.0882V12.5829C148.285 11.4904 149.339 10.9441 150.797 10.9441C151.961 10.9441 152.91 11.3223 153.646 12.0787C154.381 12.8231 154.748 13.8616 154.748 15.1943V21.0654H152.175V15.5545C152.175 14.7741 151.973 14.1798 151.569 13.7716C151.164 13.3513 150.613 13.1412 149.914 13.1412C149.216 13.1412 148.658 13.3513 148.242 13.7716C147.837 14.1798 147.635 14.7741 147.635 15.5545V21.0654H145.044V11.0882H147.635Z"
          fill="#303D6C"/>
    <path d="M157.503 19.7687C156.596 18.7962 156.143 17.5596 156.143 16.0588C156.143 14.558 156.596 13.3333 157.503 12.3848C158.41 11.4243 159.561 10.9441 160.958 10.9441C162.355 10.9441 163.421 11.5084 164.156 12.637V11.0882H166.73V21.1374C166.73 22.5662 166.301 23.7308 165.443 24.6313C164.585 25.5438 163.378 26 161.822 26C160.278 26 159.047 25.6818 158.128 25.0455C157.221 24.4212 156.706 23.5267 156.584 22.3621H159.12C159.28 22.8063 159.586 23.1545 160.039 23.4066C160.493 23.6708 161.062 23.8028 161.749 23.8028C162.435 23.8028 163.005 23.5807 163.458 23.1365C163.924 22.6923 164.156 22.0259 164.156 21.1374V19.3905C163.384 20.6032 162.312 21.2095 160.94 21.2095C159.567 21.2095 158.422 20.7292 157.503 19.7687ZM163.348 18.2379C163.887 17.7096 164.156 16.9893 164.156 16.0768C164.156 15.1643 163.887 14.4499 163.348 13.9336C162.808 13.4054 162.177 13.1412 161.454 13.1412C160.732 13.1412 160.1 13.3994 159.561 13.9156C159.034 14.4319 158.771 15.1463 158.771 16.0588C158.771 16.9712 159.041 17.6916 159.58 18.2199C160.119 18.7482 160.744 19.0123 161.454 19.0123C162.177 19.0123 162.808 18.7542 163.348 18.2379Z"
          fill="#303D6C"/>
    <path d="M171.794 8.54881C171.794 8.98104 171.641 9.34724 171.334 9.64739C171.028 9.94755 170.654 10.0976 170.213 10.0976C169.784 10.0976 169.417 9.94755 169.11 9.64739C168.804 9.34724 168.651 8.98104 168.651 8.54881C168.651 8.11659 168.804 7.75039 169.11 7.45024C169.417 7.15008 169.784 7 170.213 7C170.654 7 171.028 7.15008 171.334 7.45024C171.641 7.75039 171.794 8.11659 171.794 8.54881ZM168.926 21.0654V11.0882H171.518V21.0654H168.926Z"
          fill="#303D6C"/>
    <path d="M176.316 11.0882V12.5829C176.965 11.4904 178.019 10.9441 179.477 10.9441C180.641 10.9441 181.591 11.3223 182.326 12.0787C183.061 12.8231 183.429 13.8616 183.429 15.1943V21.0654H180.855V15.5545C180.855 14.7741 180.653 14.1798 180.249 13.7716C179.845 13.3513 179.293 13.1412 178.595 13.1412C177.896 13.1412 177.339 13.3513 176.922 13.7716C176.518 14.1798 176.316 14.7741 176.316 15.5545V21.0654H173.724V11.0882H176.316Z"
          fill="#303D6C"/>
    <path d="M189.841 21.2095C188.358 21.2095 187.151 20.7412 186.22 19.8047C185.289 18.8562 184.823 17.6076 184.823 16.0588C184.823 14.51 185.289 13.2733 186.22 12.3488C187.163 11.4123 188.376 10.9441 189.859 10.9441C191.354 10.9441 192.579 11.4003 193.535 12.3128C194.491 13.2133 194.969 14.4199 194.969 15.9327C194.969 16.2809 194.944 16.6051 194.895 16.9052H187.47C187.531 17.5536 187.776 18.0758 188.205 18.472C188.634 18.8682 189.179 19.0664 189.841 19.0664C190.735 19.0664 191.397 18.7062 191.826 17.9858H194.62C194.325 18.9343 193.756 19.7087 192.91 20.309C192.065 20.9093 191.042 21.2095 189.841 21.2095ZM192.285 15.2664C192.248 14.606 191.997 14.0777 191.532 13.6815C191.078 13.2853 190.527 13.0872 189.877 13.0872C189.228 13.0872 188.683 13.2853 188.242 13.6815C187.813 14.0777 187.555 14.606 187.47 15.2664H192.285Z"
          fill="#303D6C"/>
</svg>
