<svg preserveAspectRatio="xMidYMid meet" viewBox="0 0 183 32" fill="none" xmlns="http://www.w3.org/2000/svg">
    <path d="M0 9.78934L22.9134 3.5L27.018 19.1934L4.10457 25.4827L0 9.78934Z" fill="#303D6C"/>
    <path d="M2.11078 9.10345H28.2845V28.5H2.11078V9.10345Z" fill="#5B76BC"/>
    <path d="M22.1665 21.1619C22.4424 21.1899 22.7209 21.162 22.9862 21.08C23.2515 20.998 23.4984 20.8634 23.7128 20.684C23.9272 20.5045 24.1049 20.2837 24.2357 20.0342C24.3665 19.7846 24.4478 19.5112 24.4751 19.2296C24.5025 18.9479 24.4752 18.6635 24.3948 18.3926C24.3145 18.1217 24.1826 17.8697 24.0069 17.6508C23.8311 17.4319 23.6148 17.2505 23.3704 17.117C23.126 16.9835 22.8582 16.9004 22.5824 16.8726C22.3065 16.8447 22.028 16.8725 21.7626 16.9545C21.4973 17.0365 21.2504 17.1711 21.036 17.3505C20.8217 17.53 20.644 17.7508 20.5132 18.0003C20.3824 18.2499 20.301 18.5233 20.2737 18.8049C20.2464 19.0866 20.2737 19.371 20.3541 19.6419C20.4344 19.9128 20.5662 20.1649 20.742 20.3837C20.9178 20.6026 21.134 20.784 21.3784 20.9175C21.6229 21.051 21.8907 21.1341 22.1665 21.1619Z"
          fill="#BFD3F7"/>
    <path d="M180.209 11.9176V13.6413C180.852 12.3983 181.783 11.7768 183 11.7768V14.3097H182.397C181.674 14.3097 181.128 14.4973 180.76 14.8726C180.393 15.2361 180.209 15.8693 180.209 16.7722V21.662H177.78V11.9176H180.209Z"
          fill="#303D6C"/>
    <path d="M171.061 21.8027C169.671 21.8027 168.54 21.3454 167.667 20.4308C166.795 19.5044 166.358 18.2849 166.358 16.7722C166.358 15.2595 166.795 14.0517 167.667 13.1488C168.552 12.2342 169.689 11.7768 171.078 11.7768C172.479 11.7768 173.628 12.2224 174.524 13.1136C175.42 13.9931 175.867 15.1716 175.867 16.6491C175.867 16.9891 175.844 17.3057 175.799 17.5989H168.839C168.896 18.2321 169.126 18.7422 169.528 19.1292C169.93 19.5161 170.441 19.7096 171.061 19.7096C171.899 19.7096 172.52 19.3578 172.922 18.6543H175.54C175.265 19.5806 174.73 20.337 173.938 20.9233C173.146 21.5096 172.187 21.8027 171.061 21.8027ZM173.352 15.9983C173.318 15.3533 173.082 14.8374 172.646 14.4504C172.221 14.0634 171.704 13.87 171.096 13.87C170.487 13.87 169.976 14.0634 169.562 14.4504C169.16 14.8374 168.919 15.3533 168.839 15.9983H173.352Z"
          fill="#303D6C"/>
    <path d="M163.988 19.5864H165.142V21.662H163.609C162.633 21.662 161.88 21.4333 161.352 20.976C160.824 20.5187 160.56 19.7623 160.56 18.707V13.9403H159.543V11.9175H160.56V9.50779H162.989V11.9175H165.125V13.9403H162.989V18.707C162.989 19.0236 163.063 19.2522 163.213 19.393C163.362 19.5219 163.62 19.5864 163.988 19.5864Z"
          fill="#303D6C"/>
    <path d="M151.122 11.9176V13.3775C151.731 12.3104 152.718 11.7768 154.085 11.7768C155.176 11.7768 156.066 12.1462 156.755 12.885C157.444 13.612 157.789 14.6263 157.789 15.9279V21.662H155.377V16.2797C155.377 15.5175 155.187 14.937 154.808 14.5384C154.429 14.1279 153.913 13.9227 153.258 13.9227C152.603 13.9227 152.081 14.1279 151.69 14.5384C151.311 14.937 151.122 15.5175 151.122 16.2797V21.662H148.693V11.9176H151.122Z"
          fill="#303D6C"/>
    <path d="M141.974 21.8027C140.584 21.8027 139.453 21.3454 138.58 20.4308C137.707 19.5044 137.271 18.2849 137.271 16.7722C137.271 15.2595 137.707 14.0517 138.58 13.1488C139.464 12.2342 140.601 11.7768 141.991 11.7768C143.392 11.7768 144.541 12.2224 145.436 13.1136C146.332 13.9931 146.78 15.1716 146.78 16.6491C146.78 16.9891 146.757 17.3057 146.711 17.5989H139.751C139.809 18.2321 140.039 18.7422 140.441 19.1292C140.843 19.5161 141.354 19.7096 141.974 19.7096C142.812 19.7096 143.432 19.3578 143.834 18.6543H146.453C146.177 19.5806 145.643 20.337 144.851 20.9233C144.058 21.5096 143.099 21.8027 141.974 21.8027ZM144.265 15.9983C144.23 15.3533 143.995 14.8374 143.559 14.4504C143.134 14.0634 142.617 13.87 142.008 13.87C141.4 13.87 140.888 14.0634 140.475 14.4504C140.073 14.8374 139.832 15.3533 139.751 15.9983H144.265Z"
          fill="#303D6C"/>
    <path d="M125.805 19.991C124.622 18.8067 124.031 17.3057 124.031 15.4882C124.031 13.6706 124.622 12.1697 125.805 10.9853C127 9.80097 128.458 9.2088 130.181 9.2088C131.49 9.2088 132.65 9.54886 133.661 10.229C134.683 10.9091 135.412 11.8648 135.849 13.096H132.937C132.397 12.0172 131.479 11.4778 130.181 11.4778C129.09 11.4778 128.2 11.8472 127.511 12.5859C126.833 13.313 126.494 14.2862 126.494 15.5058C126.494 16.7136 126.833 17.6868 127.511 18.4256C128.2 19.1526 129.09 19.5161 130.181 19.5161C131.467 19.5161 132.386 18.9767 132.937 17.8979H135.849C135.412 19.1291 134.683 20.0848 133.661 20.765C132.65 21.4333 131.49 21.7675 130.181 21.7675C128.447 21.7675 126.988 21.1754 125.805 19.991Z"
          fill="#303D6C"/>
    <path d="M108.314 20.3956C107.464 19.4458 107.039 18.238 107.039 16.7722C107.039 15.3064 107.464 14.1104 108.314 13.184C109.164 12.2459 110.244 11.7768 111.553 11.7768C112.862 11.7768 113.861 12.328 114.55 13.4302V11.9176H116.962V21.7324C116.962 23.1278 116.56 24.2652 115.756 25.1447C114.952 26.0359 113.821 26.4815 112.363 26.4815C110.916 26.4815 109.761 26.1707 108.9 25.5492C108.05 24.9395 107.568 24.0659 107.453 22.9284H109.83C109.98 23.3623 110.267 23.7024 110.692 23.9486C111.116 24.2066 111.651 24.3356 112.294 24.3356C112.937 24.3356 113.471 24.1186 113.896 23.6848C114.332 23.2509 114.55 22.6001 114.55 21.7324V20.0262C113.827 21.2106 112.822 21.8027 111.536 21.8027C110.249 21.8027 109.176 21.3337 108.314 20.3956ZM113.792 18.9005C114.298 18.3845 114.55 17.681 114.55 16.7898C114.55 15.8986 114.298 15.2009 113.792 14.6967C113.287 14.1807 112.696 13.9227 112.018 13.9227C111.34 13.9227 110.749 14.1748 110.244 14.6791C109.75 15.1833 109.503 15.881 109.503 16.7722C109.503 17.6634 109.756 18.367 110.261 18.8829C110.766 19.3989 111.352 19.6568 112.018 19.6568C112.696 19.6568 113.287 19.4047 113.792 18.9005Z"
          fill="#303D6C"/>
    <path d="M98.5493 11.9176V13.3775C99.158 12.3104 100.146 11.7768 101.512 11.7768C102.603 11.7768 103.493 12.1462 104.182 12.885C104.872 13.612 105.216 14.6263 105.216 15.9279V21.662H102.804V16.2797C102.804 15.5175 102.615 14.937 102.236 14.5384C101.857 14.1279 101.34 13.9227 100.685 13.9227C100.031 13.9227 99.5082 14.1279 99.1178 14.5384C98.7388 14.937 98.5493 15.5175 98.5493 16.2797V21.662H96.1203V11.9176H98.5493Z"
          fill="#303D6C"/>
    <path d="M93.7944 9.43742C93.7944 9.85956 93.6508 10.2172 93.3637 10.5104C93.0766 10.8035 92.7263 10.9501 92.3129 10.9501C91.9109 10.9501 91.5664 10.8035 91.2793 10.5104C90.9921 10.2172 90.8486 9.85956 90.8486 9.43742C90.8486 9.01528 90.9921 8.65763 91.2793 8.36447C91.5664 8.07132 91.9109 7.92474 92.3129 7.92474C92.7263 7.92474 93.0766 8.07132 93.3637 8.36447C93.6508 8.65763 93.7944 9.01528 93.7944 9.43742ZM91.107 21.662V11.9175H93.536V21.662H91.107Z"
          fill="#303D6C"/>
    <path d="M81.4147 20.4308C80.5419 19.5161 80.1055 18.3025 80.1055 16.7898C80.1055 15.2771 80.5419 14.0634 81.4147 13.1488C82.2875 12.2342 83.4188 11.7768 84.8084 11.7768C85.9684 11.7768 86.9388 12.0641 87.7198 12.6387C88.5007 13.2133 89.0233 14.0283 89.2874 15.0836H86.6689C86.3588 14.2745 85.7387 13.87 84.8084 13.87C84.1078 13.87 83.5566 14.1338 83.1546 14.6615C82.7641 15.1774 82.5689 15.8869 82.5689 16.7898C82.5689 17.6927 82.7641 18.408 83.1546 18.9357C83.5566 19.4516 84.1078 19.7096 84.8084 19.7096C85.7272 19.7096 86.3474 19.2992 86.6689 18.4784H89.2874C89.0118 19.4985 88.4778 20.3076 87.6853 20.9057C86.9044 21.5037 85.9454 21.8027 84.8084 21.8027C83.4188 21.8027 82.2875 21.3454 81.4147 20.4308Z"
          fill="#303D6C"/>
    <path d="M78.4516 9.43742C78.4516 9.85956 78.308 10.2172 78.0209 10.5104C77.7338 10.8035 77.3835 10.9501 76.9701 10.9501C76.5681 10.9501 76.2236 10.8035 75.9365 10.5104C75.6494 10.2172 75.5058 9.85956 75.5058 9.43742C75.5058 9.01528 75.6494 8.65763 75.9365 8.36447C76.2236 8.07132 76.5681 7.92474 76.9701 7.92474C77.3835 7.92474 77.7338 8.07132 78.0209 8.36447C78.308 8.65763 78.4516 9.01528 78.4516 9.43742ZM75.7642 21.662V11.9175H78.1932V21.662H75.7642Z"
          fill="#303D6C"/>
    <path d="M64.2799 11.9176H66.8639L69.3274 19.5337L71.7736 11.9176H74.3577L70.8434 21.662H67.7942L64.2799 11.9176Z"
          fill="#303D6C"/>
    <path d="M60.9325 11.9176V13.6413C61.5757 12.3983 62.5059 11.7768 63.7233 11.7768V14.3097H63.1203C62.3968 14.3097 61.8513 14.4973 61.4838 14.8726C61.1163 15.2361 60.9325 15.8693 60.9325 16.7722V21.662H58.5035V11.9176H60.9325Z"
          fill="#303D6C"/>
    <path d="M51.7844 21.8027C50.3948 21.8027 49.2635 21.3454 48.3907 20.4308C47.5179 19.5044 47.0814 18.2849 47.0814 16.7722C47.0814 15.2595 47.5179 14.0517 48.3907 13.1488C49.275 12.2342 50.412 11.7768 51.8016 11.7768C53.2028 11.7768 54.3512 12.2224 55.247 13.1136C56.1428 13.9931 56.5907 15.1716 56.5907 16.6491C56.5907 16.9891 56.5678 17.3057 56.5218 17.5989H49.5621C49.6196 18.2321 49.8492 18.7422 50.2512 19.1292C50.6532 19.5161 51.1642 19.7096 51.7844 19.7096C52.6228 19.7096 53.243 19.3578 53.6449 18.6543H56.2634C55.9878 19.5806 55.4538 20.337 54.6613 20.9233C53.8689 21.5096 52.9099 21.8027 51.7844 21.8027ZM54.0756 15.9983C54.0411 15.3533 53.8057 14.8374 53.3693 14.4504C52.9444 14.0634 52.4275 13.87 51.8189 13.87C51.2102 13.87 50.6991 14.0634 50.2857 14.4504C49.8837 14.8374 49.6425 15.3533 49.5621 15.9983H54.0756Z"
          fill="#303D6C"/>
    <path d="M40.8968 11.1964C40.4144 11.1964 40.0182 11.3254 39.7081 11.5834C39.4095 11.8296 39.2602 12.1755 39.2602 12.6211C39.2602 13.0667 39.3693 13.4185 39.5875 13.6765C39.8172 13.9227 40.1158 14.1162 40.4833 14.2569C40.8508 14.3859 41.2528 14.5032 41.6892 14.6087C42.1256 14.7142 42.562 14.8432 42.9985 14.9957C43.4349 15.1481 43.8368 15.3357 44.2043 15.5585C44.5719 15.7813 44.8647 16.1097 45.0829 16.5435C45.3126 16.9657 45.4275 17.4816 45.4275 18.0914C45.4275 19.0998 45.0312 19.9676 44.2388 20.6946C43.4578 21.4216 42.4127 21.7851 41.1035 21.7851C39.8057 21.7851 38.7549 21.4744 37.951 20.8529C37.147 20.2197 36.7451 19.3344 36.7451 18.1969H39.3291C39.421 19.2757 40.0239 19.8151 41.1379 19.8151C41.6892 19.8151 42.1256 19.6686 42.4472 19.3754C42.7688 19.0822 42.9296 18.6953 42.9296 18.2145C42.9296 17.722 42.7171 17.335 42.2922 17.0536C41.8672 16.7722 41.3504 16.5611 40.7417 16.4204C40.1445 16.2797 39.5416 16.1097 38.9329 15.9103C38.3242 15.711 37.8074 15.365 37.3825 14.8725C36.9575 14.3683 36.7451 13.7058 36.7451 12.885C36.7451 11.771 37.1413 10.8798 37.9337 10.2114C38.7262 9.543 39.7426 9.2088 40.9829 9.2088C42.2347 9.2088 43.2396 9.50195 43.9976 10.0883C44.7556 10.6628 45.1691 11.5423 45.238 12.7267H42.585C42.5391 12.2576 42.3668 11.8882 42.0682 11.6185C41.7696 11.3371 41.3791 11.1964 40.8968 11.1964Z"
          fill="#303D6C"/>
</svg>
