<svg preserveAspectRatio="xMidYMid meet" viewBox="0 0 80 80" fill="none" xmlns="http://www.w3.org/2000/svg">
    <path d="M4 24.6802L62.3276 9L72.776 48.1257L14.4485 63.8059L4 24.6802Z" fill="#303D6C"/>
    <path d="M9.37329 22.9702H76.0001V71.3283H9.37329V22.9702Z" fill="#5B76BC"/>
    <path d="M60.4264 53.0336C61.1286 53.1031 61.8376 53.0337 62.513 52.8292C63.1884 52.6248 63.8169 52.2893 64.3626 51.8419C64.9083 51.3946 65.3606 50.8441 65.6935 50.2219C66.0265 49.5998 66.2336 48.9181 66.3032 48.2159C66.3727 47.5137 66.3032 46.8046 66.0986 46.1293C65.8941 45.4539 65.5586 44.8254 65.1112 44.2798C64.6637 43.7341 64.1132 43.2819 63.491 42.949C62.8688 42.6161 62.1872 42.409 61.4849 42.3396C60.7827 42.27 60.0737 42.3394 59.3983 42.5439C58.7229 42.7483 58.0944 43.0838 57.5487 43.5312C57.003 43.9786 56.5507 44.5291 56.2178 45.1512C55.8848 45.7734 55.6777 46.455 55.6082 47.1572C55.5387 47.8595 55.6081 48.5685 55.8127 49.2439C56.0172 49.9192 56.3527 50.5477 56.8002 51.0934C57.2476 51.639 57.7981 52.0912 58.4203 52.4241C59.0425 52.757 59.7242 52.9641 60.4264 53.0336Z"
          fill="#9BB2F9"/>
</svg>
