<svg preserveAspectRatio="xMidYMid meet" viewBox="0 0 168 32" fill="none" xmlns="http://www.w3.org/2000/svg">
    <path d="M12.1244 2L24.2488 9V23L12.1244 30L0 23V9L12.1244 2Z" fill="#5B76BC"/>
    <path d="M12.1244 6.9L20.0053 11.45V20.55L12.1244 25.1L4.24344 20.55V11.45L12.1244 6.9Z" fill="#303D6C"/>
    <path d="M12.1244 11.8L15.7616 13.9V18.1L12.1244 20.2L8.48719 18.1V13.9L12.1244 11.8Z" fill="#9BB2F9"/>
    <path d="M43.4353 14.1706C43.1073 14.5877 42.6273 14.9226 41.9955 15.1754C41.3758 15.4155 40.6468 15.5355 39.8084 15.5355H37.6942V20.8057H35.1244V7.57346H39.8084C41.2786 7.57346 42.4086 7.95893 43.1984 8.72986C44.0003 9.48815 44.4013 10.3855 44.4013 11.4218C44.4013 12.4581 44.0793 13.3744 43.4353 14.1706ZM37.6942 13.4882H39.8084C40.4524 13.4882 40.9445 13.3175 41.2847 12.9763C41.6249 12.6224 41.795 12.1485 41.795 11.5545C41.795 10.9605 41.6249 10.4929 41.2847 10.1517C40.9445 9.79779 40.4524 9.62085 39.8084 9.62085H37.6942V13.4882Z"
          fill="#303D6C"/>
    <path d="M48.9073 10.3033V12.1611C49.5878 10.8215 50.572 10.1517 51.8599 10.1517V12.8815H51.222C50.4565 12.8815 49.8794 13.0837 49.4905 13.4882C49.1017 13.8799 48.9073 14.5624 48.9073 15.5355V20.8057H46.3375V10.3033H48.9073Z"
          fill="#303D6C"/>
    <path d="M56.5315 7.63033C56.5315 8.08531 56.3797 8.47077 56.0759 8.78673C55.7721 9.10269 55.4015 9.26066 54.9641 9.26066C54.5389 9.26066 54.1743 9.10269 53.8706 8.78673C53.5668 8.47077 53.4149 8.08531 53.4149 7.63033C53.4149 7.17536 53.5668 6.78989 53.8706 6.47393C54.1743 6.15798 54.5389 6 54.9641 6C55.4015 6 55.7721 6.15798 56.0759 6.47393C56.3797 6.78989 56.5315 7.17536 56.5315 7.63033ZM53.6883 20.8057V10.3033H56.2581V20.8057H53.6883Z"
          fill="#303D6C"/>
    <path d="M59.6667 19.4787C58.7432 18.4929 58.2815 17.1848 58.2815 15.5545C58.2815 13.9242 58.7432 12.6161 59.6667 11.6303C60.5901 10.6445 61.7869 10.1517 63.2571 10.1517C64.4843 10.1517 65.511 10.4613 66.3373 11.0806C67.1635 11.6998 67.7164 12.5782 67.9958 13.7156H65.2255C64.8974 12.8436 64.2413 12.4076 63.2571 12.4076C62.5159 12.4076 61.9327 12.6919 61.5075 13.2607C61.0943 13.8167 60.8878 14.5814 60.8878 15.5545C60.8878 16.5276 61.0943 17.2986 61.5075 17.8673C61.9327 18.4234 62.5159 18.7014 63.2571 18.7014C64.2292 18.7014 64.8853 18.2591 65.2255 17.3744H67.9958C67.7042 18.4739 67.1392 19.346 66.3008 19.9905C65.4746 20.6351 64.46 20.9573 63.2571 20.9573C61.7869 20.9573 60.5901 20.4645 59.6667 19.4787Z"
          fill="#303D6C"/>
    <path d="M72.7639 7.63033C72.7639 8.08531 72.612 8.47077 72.3082 8.78673C72.0045 9.10269 71.6339 9.26066 71.1964 9.26066C70.7712 9.26066 70.4067 9.10269 70.1029 8.78673C69.7991 8.47077 69.6473 8.08531 69.6473 7.63033C69.6473 7.17536 69.7991 6.78989 70.1029 6.47393C70.4067 6.15798 70.7712 6 71.1964 6C71.6339 6 72.0045 6.15798 72.3082 6.47393C72.612 6.78989 72.7639 7.17536 72.7639 7.63033ZM69.9206 20.8057V10.3033H72.4905V20.8057H69.9206Z"
          fill="#303D6C"/>
    <path d="M77.7945 10.3033V11.8768C78.4384 10.7267 79.4834 10.1517 80.9293 10.1517C82.0836 10.1517 83.0253 10.5498 83.7543 11.346C84.4833 12.1295 84.8478 13.2227 84.8478 14.6256V20.8057H82.2962V15.0047C82.2962 14.1833 82.0957 13.5577 81.6948 13.128C81.2938 12.6856 80.747 12.4645 80.0545 12.4645C79.3619 12.4645 78.809 12.6856 78.3959 13.128C77.9949 13.5577 77.7945 14.1833 77.7945 15.0047V20.8057H75.2246V10.3033H77.7945Z"
          fill="#303D6C"/>
    <path d="M88.1258 19.4408C87.2266 18.4171 86.7771 17.1153 86.7771 15.5355C86.7771 13.9558 87.2266 12.6667 88.1258 11.6682C89.0249 10.6572 90.167 10.1517 91.5522 10.1517C92.9374 10.1517 93.9945 10.7457 94.7235 11.9336V10.3033H97.2751V20.8815C97.2751 22.3855 96.8498 23.6114 95.9993 24.5592C95.1488 25.5197 93.9519 26 92.4088 26C90.8779 26 89.6567 25.6651 88.7454 24.9953C87.8463 24.3381 87.336 23.3965 87.2145 22.1706H89.7296C89.8876 22.6382 90.1914 23.0047 90.6409 23.2701C91.0905 23.5482 91.6555 23.6872 92.3359 23.6872C93.0164 23.6872 93.5813 23.4534 94.0309 22.9858C94.4926 22.5182 94.7235 21.8167 94.7235 20.8815V19.0427C93.958 20.3191 92.8948 20.9573 91.534 20.9573C90.1731 20.9573 89.0371 20.4518 88.1258 19.4408ZM93.9216 17.8294C94.4562 17.2733 94.7235 16.515 94.7235 15.5545C94.7235 14.594 94.4562 13.842 93.9216 13.2986C93.3869 12.7425 92.7612 12.4645 92.0443 12.4645C91.3274 12.4645 90.7017 12.7362 90.1671 13.2796C89.6446 13.8231 89.3833 14.575 89.3833 15.5355C89.3833 16.4961 89.6507 17.2543 90.1853 17.8104C90.7199 18.3665 91.3396 18.6445 92.0443 18.6445C92.7612 18.6445 93.3869 18.3728 93.9216 17.8294Z"
          fill="#303D6C"/>
    <path d="M112.809 7.53554V9.58294H108.034V13.0521H112.263V15.0995H108.034V18.7583H112.809V20.8057H105.464V7.53554H112.809Z"
          fill="#303D6C"/>
    <path d="M118.002 10.3033V11.8768C118.645 10.7267 119.69 10.1517 121.136 10.1517C122.291 10.1517 123.232 10.5498 123.961 11.346C124.69 12.1295 125.055 13.2227 125.055 14.6256V20.8057H122.503V15.0047C122.503 14.1833 122.303 13.5577 121.902 13.128C121.501 12.6856 120.954 12.4645 120.261 12.4645C119.569 12.4645 119.016 12.6856 118.603 13.128C118.202 13.5577 118.002 14.1833 118.002 15.0047V20.8057H115.432V10.3033H118.002Z"
          fill="#303D6C"/>
    <path d="M128.333 19.4408C127.434 18.4171 126.984 17.1153 126.984 15.5355C126.984 13.9558 127.434 12.6667 128.333 11.6682C129.232 10.6572 130.374 10.1517 131.759 10.1517C133.144 10.1517 134.201 10.7457 134.931 11.9336V10.3033H137.482V20.8815C137.482 22.3855 137.057 23.6114 136.206 24.5592C135.356 25.5197 134.159 26 132.616 26C131.085 26 129.864 25.6651 128.952 24.9953C128.053 24.3381 127.543 23.3965 127.422 22.1706H129.937C130.095 22.6382 130.398 23.0047 130.848 23.2701C131.298 23.5482 131.863 23.6872 132.543 23.6872C133.223 23.6872 133.788 23.4534 134.238 22.9858C134.7 22.5182 134.931 21.8167 134.931 20.8815V19.0427C134.165 20.3191 133.102 20.9573 131.741 20.9573C130.38 20.9573 129.244 20.4518 128.333 19.4408ZM134.129 17.8294C134.663 17.2733 134.931 16.515 134.931 15.5545C134.931 14.594 134.663 13.842 134.129 13.2986C133.594 12.7425 132.968 12.4645 132.251 12.4645C131.534 12.4645 130.909 12.7362 130.374 13.2796C129.852 13.8231 129.59 14.575 129.59 15.5355C129.59 16.4961 129.858 17.2543 130.392 17.8104C130.927 18.3665 131.547 18.6445 132.251 18.6445C132.968 18.6445 133.594 18.3728 134.129 17.8294Z"
          fill="#303D6C"/>
    <path d="M143.051 7.63033C143.051 8.08531 142.899 8.47077 142.595 8.78673C142.291 9.10269 141.921 9.26066 141.483 9.26066C141.058 9.26066 140.693 9.10269 140.39 8.78673C140.086 8.47077 139.934 8.08531 139.934 7.63033C139.934 7.17536 140.086 6.78989 140.39 6.47393C140.693 6.15798 141.058 6 141.483 6C141.921 6 142.291 6.15798 142.595 6.47393C142.899 6.78989 143.051 7.17536 143.051 7.63033ZM140.207 20.8057V10.3033H142.777V20.8057H140.207Z"
          fill="#303D6C"/>
    <path d="M148.081 10.3033V11.8768C148.725 10.7267 149.77 10.1517 151.216 10.1517C152.37 10.1517 153.312 10.5498 154.041 11.346C154.77 12.1295 155.135 13.2227 155.135 14.6256V20.8057H152.583V15.0047C152.583 14.1833 152.382 13.5577 151.981 13.128C151.58 12.6856 151.034 12.4645 150.341 12.4645C149.649 12.4645 149.096 12.6856 148.683 13.128C148.282 13.5577 148.081 14.1833 148.081 15.0047V20.8057H145.511V10.3033H148.081Z"
          fill="#303D6C"/>
    <path d="M162.039 20.9573C160.569 20.9573 159.372 20.4645 158.449 19.4787C157.525 18.4803 157.064 17.1659 157.064 15.5355C157.064 13.9052 157.525 12.6035 158.449 11.6303C159.385 10.6445 160.587 10.1517 162.058 10.1517C163.54 10.1517 164.755 10.6319 165.703 11.5924C166.65 12.5403 167.124 13.8104 167.124 15.4028C167.124 15.7694 167.1 16.1106 167.051 16.4265H159.688C159.749 17.109 159.992 17.6588 160.417 18.0758C160.843 18.4929 161.383 18.7014 162.039 18.7014C162.926 18.7014 163.582 18.3223 164.008 17.564H166.778C166.486 18.5624 165.921 19.3776 165.083 20.0095C164.245 20.6414 163.23 20.9573 162.039 20.9573ZM164.463 14.7014C164.427 14.0063 164.178 13.4502 163.716 13.0332C163.267 12.6161 162.72 12.4076 162.076 12.4076C161.432 12.4076 160.891 12.6161 160.454 13.0332C160.028 13.4502 159.773 14.0063 159.688 14.7014H164.463Z"
          fill="#303D6C"/>
</svg>
