<svg preserveAspectRatio="xMidYMid meet" viewBox="0 0 32 32" fill="none" xmlns="http://www.w3.org/2000/svg">
    <path d="M5.84375 4.625H26.1563V24.9375H5.84375V4.625Z" fill="#9BB2F9"/>
    <path d="M16.6197 20.6227C16.7834 20.6003 16.9329 20.5619 17.0682 20.5076C17.3017 20.415 17.4825 20.2862 17.6106 20.1212C17.7388 19.9563 17.8028 19.7667 17.8028 19.5526C17.8028 19.3529 17.7445 19.185 17.6277 19.049C17.5138 18.913 17.3458 18.7972 17.1237 18.7017C16.9778 18.6382 16.8098 18.5784 16.6197 18.5226V20.6227Z" fill="#3C538F"/>
    <path d="M15.9192 16.6619V14.68C15.7701 14.7013 15.6363 14.7366 15.5177 14.7862C15.3099 14.8701 15.1504 14.9873 15.0394 15.1378C14.9312 15.2883 14.8771 15.459 14.8771 15.65C14.8714 15.8092 14.9041 15.9481 14.9753 16.0667C15.0493 16.1854 15.1504 16.2881 15.2786 16.375C15.4067 16.4589 15.5548 16.5327 15.7228 16.5963C15.7866 16.6194 15.8521 16.6413 15.9192 16.6619Z" fill="#3C538F"/>
    <path fill-rule="evenodd" clip-rule="evenodd" d="M29 8.6875H3V27.375H29V8.6875ZM15.9192 22.2126V23.2077H16.6197V22.2133C17.1846 22.1832 17.6772 22.0777 18.0976 21.8967C18.6044 21.6767 18.9917 21.3685 19.2593 20.9721C19.5298 20.5727 19.6665 20.101 19.6694 19.5569C19.6665 19.1865 19.5996 18.858 19.4686 18.5715C19.3405 18.285 19.1597 18.0361 18.9262 17.8248C18.6927 17.6136 18.4165 17.4356 18.0976 17.2909C17.7786 17.1462 17.4284 17.0304 17.0468 16.9436L16.6197 16.8398V14.6769C16.9085 14.7149 17.1477 14.8049 17.3373 14.9468C17.5964 15.1407 17.743 15.4127 17.7772 15.7629H19.5498C19.5412 15.2333 19.4017 14.7673 19.1312 14.3651C18.8607 13.9628 18.482 13.6488 17.995 13.4231C17.5934 13.2358 17.135 13.1262 16.6197 13.0943V12.0948H15.9192V13.0981C15.4314 13.1344 14.9872 13.2427 14.5866 13.4231C14.0855 13.6488 13.6911 13.9628 13.4035 14.3651C13.1187 14.7673 12.9778 15.2376 12.9806 15.7759C12.9778 16.4328 13.1899 16.9552 13.6171 17.343C14.0442 17.7308 14.6265 18.0158 15.364 18.1982L15.9192 18.3399V20.6272C15.7308 20.6045 15.5557 20.5617 15.3939 20.4989C15.1433 20.3976 14.9426 20.2486 14.7916 20.0518C14.6436 19.8521 14.5596 19.6032 14.5396 19.3051H12.75C12.7642 19.9447 12.9166 20.4815 13.207 20.9156C13.5003 21.3468 13.9075 21.6724 14.4286 21.8923C14.8629 22.0746 15.3597 22.1814 15.9192 22.2126Z" fill="#3C538F"/>
</svg>