<svg preserveAspectRatio="xMidYMid meet" viewBox="0 0 80 80" fill="none" xmlns="http://www.w3.org/2000/svg">
    <g id="doc">
        <g id="DOC logo">
            <path d="M69.6 6C65.5131 6 62.2 9.25179 62.2 13.2632V69.5526C62.2 72.7126 59.5244 75 56.6919 75H14.1V13.2632C14.1 8.88339 17.8 6 21.5 6H69.6Z"
                  fill="#3C538F"/>
            <path d="M62.2 13.2632C62.2 9.25179 65.5131 6 69.6 6C73.6869 6 77 9.25179 77 13.2632V20.5263H62.2V13.2632Z"
                  fill="#9DAEEB"/>
            <path d="M59.1161 74.4338C58.3624 74.8009 57.5333 74.9951 56.6919 75L59.4459 74.9991H8.55C5.4848 75 3 72.5612 3 69.5526V64.1053H51.1V69.5526C51.1 72.5612 53.5848 75 56.65 75C57.5362 75 58.3725 74.7961 59.1161 74.4338Z"
                  fill="#9DAEEB"/>
            <path d="M36.3 24.1579H54.8V31.4211H36.3V24.1579ZM21.5 38.6842H54.8V45.9474H21.5V38.6842Z" fill="#C5D1FF"/>
        </g>
    </g>
</svg>
