<svg xmlns="http://www.w3.org/2000/svg" preserveAspectRatio="xMidYMid meet" viewBox="0 0 18 18" fill="none">
    <path d="M12.773 9.39804L7.14798 15.023C7.09571 15.0753 7.03367 15.1168 6.96539 15.145C6.8971 15.1733 6.82392 15.1879 6.75001 15.1879C6.6761 15.1879 6.60291 15.1733 6.53463 15.145C6.46634 15.1168 6.4043 15.0753 6.35204 15.023C6.29978 14.9708 6.25832 14.9087 6.23004 14.8404C6.20175 14.7722 6.18719 14.699 6.18719 14.6251C6.18719 14.5512 6.20175 14.478 6.23004 14.4097C6.25832 14.3414 6.29978 14.2794 6.35204 14.2271L11.5798 9.00007L6.35204 3.77304C6.24649 3.66749 6.18719 3.52434 6.18719 3.37507C6.18719 3.2258 6.24649 3.08265 6.35204 2.9771C6.45759 2.87155 6.60074 2.81226 6.75001 2.81226C6.89927 2.81226 7.04243 2.87155 7.14798 2.9771L12.773 8.6021C12.8253 8.65434 12.8668 8.71638 12.8951 8.78466C12.9234 8.85295 12.938 8.92615 12.938 9.00007C12.938 9.07399 12.9234 9.14719 12.8951 9.21547C12.8668 9.28376 12.8253 9.3458 12.773 9.39804Z" fill="#343330"/>
</svg>
