<svg preserveAspectRatio="xMidYMid meet" viewBox="0 0 24 24" fill="none" xmlns="http://www.w3.org/2000/svg">
<g id="X">
<path id="Vector" d="M19.2806 18.2194C19.3502 18.289 19.4055 18.3718 19.4432 18.4628C19.4809 18.5539 19.5003 18.6514 19.5003 18.75C19.5003 18.8485 19.4809 18.9461 19.4432 19.0372C19.4055 19.1282 19.3502 19.2109 19.2806 19.2806C19.2109 19.3503 19.1281 19.4056 19.0371 19.4433C18.9461 19.481 18.8485 19.5004 18.7499 19.5004C18.6514 19.5004 18.5538 19.481 18.4628 19.4433C18.3717 19.4056 18.289 19.3503 18.2193 19.2806L11.9999 13.0603L5.78055 19.2806C5.63982 19.4213 5.44895 19.5004 5.24993 19.5004C5.05091 19.5004 4.86003 19.4213 4.7193 19.2806C4.57857 19.1399 4.49951 18.949 4.49951 18.75C4.49951 18.551 4.57857 18.3601 4.7193 18.2194L10.9396 12L4.7193 5.78061C4.57857 5.63988 4.49951 5.44901 4.49951 5.24999C4.49951 5.05097 4.57857 4.8601 4.7193 4.71936C4.86003 4.57863 5.05091 4.49957 5.24993 4.49957C5.44895 4.49957 5.63982 4.57863 5.78055 4.71936L11.9999 10.9397L18.2193 4.71936C18.36 4.57863 18.5509 4.49957 18.7499 4.49957C18.949 4.49957 19.1398 4.57863 19.2806 4.71936C19.4213 4.8601 19.5003 5.05097 19.5003 5.24999C19.5003 5.44901 19.4213 5.63988 19.2806 5.78061L13.0602 12L19.2806 18.2194Z" fill="#343330"/>
</g>
</svg>
