<svg preserveAspectRatio="xMidYMid meet" viewBox="0 0 166 122" fill="none" xmlns="http://www.w3.org/2000/svg">
<g id="Group 418">
<path id="Vector" d="M162.68 35.9119C162.68 25.4778 149.177 0.548768 114.383 0.54877C76.3832 0.548771 86.6095 23.9995 37.1387 35.3481C-12.3321 46.6967 -23.6004 119.527 77.472 119.527C140.658 119.527 162.68 92.2449 162.68 35.9119Z" fill="#E9EEF4"/>
<g id="Group 417">
<path id="Vector_2" d="M17.0206 121.361C16.7748 121.266 16.5635 121.099 16.4148 120.882C16.2661 120.664 16.1871 120.406 16.1882 120.143V106.489C16.1877 106.026 16.0041 105.583 15.6776 105.256C15.3511 104.93 14.9084 104.746 14.4467 104.745H11.6534C10.4993 104.744 9.39279 104.285 8.5767 103.468C7.76062 102.651 7.30159 101.543 7.30029 100.388V72.9354C7.30159 71.7802 7.76062 70.6726 8.5767 69.8557C9.39279 69.0388 10.4993 68.5794 11.6534 68.5781H110.183C111.337 68.5794 112.443 69.0388 113.26 69.8557C114.076 70.6726 114.535 71.7802 114.536 72.9354V100.388C114.535 101.543 114.076 102.651 113.26 103.468C112.443 104.285 111.337 104.744 110.183 104.745H34.1321C33.8907 104.746 33.652 104.796 33.431 104.893C33.2101 104.991 33.0117 105.133 32.8484 105.311L18.4566 121.026C18.3351 121.16 18.1871 121.267 18.0219 121.34C17.8568 121.413 17.6782 121.451 17.4976 121.451C17.3344 121.451 17.1726 121.42 17.0206 121.361Z" fill="white"/>
<path id="Vector_3" d="M17.0206 121.361C16.7748 121.266 16.5635 121.099 16.4148 120.882C16.2661 120.664 16.1871 120.406 16.1882 120.143V106.489C16.1877 106.026 16.0041 105.583 15.6776 105.256C15.3511 104.93 14.9084 104.746 14.4467 104.745H11.6534C10.4993 104.744 9.39279 104.285 8.5767 103.468C7.76062 102.651 7.30159 101.543 7.30029 100.388V72.9354C7.30159 71.7802 7.76062 70.6726 8.5767 69.8557C9.39279 69.0388 10.4993 68.5794 11.6534 68.5781H110.183C111.337 68.5794 112.443 69.0388 113.26 69.8557C114.076 70.6726 114.535 71.7802 114.536 72.9354V100.388C114.535 101.543 114.076 102.651 113.26 103.468C112.443 104.285 111.337 104.744 110.183 104.745H34.1321C33.8907 104.746 33.652 104.796 33.431 104.893C33.2101 104.991 33.0117 105.133 32.8484 105.311L18.4566 121.026C18.3351 121.16 18.1871 121.267 18.0219 121.34C17.8568 121.413 17.6782 121.451 17.4976 121.451C17.3344 121.451 17.1726 121.42 17.0206 121.361ZM11.6534 69.1587C10.6531 69.1598 9.69402 69.5581 8.98668 70.2661C8.27934 70.9741 7.88146 71.9341 7.88033 72.9354V100.388C7.88146 101.389 8.27934 102.349 8.98668 103.057C9.69402 103.765 10.6531 104.164 11.6534 104.165H14.4467C15.0623 104.165 15.6524 104.41 16.0876 104.846C16.5228 105.282 16.7676 105.872 16.7683 106.489V120.143C16.7683 120.289 16.8125 120.432 16.895 120.553C16.9776 120.674 17.0947 120.767 17.231 120.82C17.3673 120.873 17.5164 120.884 17.6588 120.85C17.8012 120.817 17.9303 120.742 18.0291 120.634L32.4208 104.918C32.6385 104.681 32.903 104.492 33.1976 104.362C33.4921 104.232 33.8103 104.165 34.1321 104.165H110.183C111.183 104.164 112.142 103.765 112.85 103.057C113.557 102.349 113.955 101.389 113.956 100.388V72.9354C113.955 71.9341 113.557 70.9741 112.85 70.2661C112.142 69.5581 111.183 69.1598 110.183 69.1587H11.6534Z" fill="#636A7C"/>
<path id="Vector_4" d="M19.5586 80.3978C21.6624 80.3978 23.3678 78.6908 23.3678 76.585C23.3678 74.4792 21.6624 72.7721 19.5586 72.7721C17.4549 72.7721 15.7495 74.4792 15.7495 76.585C15.7495 78.6908 17.4549 80.3978 19.5586 80.3978Z" fill="#9095A3"/>
<path id="Vector_5" d="M107.319 97.6828H17.6775C17.4105 97.6831 17.1461 97.6307 16.8993 97.5287C16.6526 97.4266 16.4283 97.2769 16.2394 97.088C16.0505 96.8992 15.9007 96.6749 15.7984 96.428C15.6962 96.1811 15.6436 95.9165 15.6436 95.6492C15.6436 95.382 15.6962 95.1174 15.7984 94.8705C15.9007 94.6236 16.0505 94.3993 16.2394 94.2105C16.4283 94.0216 16.6526 93.8719 16.8993 93.7698C17.1461 93.6678 17.4105 93.6154 17.6775 93.6157H107.319C107.858 93.6157 108.375 93.83 108.756 94.2113C109.137 94.5927 109.351 95.1099 109.351 95.6492C109.351 96.1886 109.137 96.7058 108.756 97.0872C108.375 97.4685 107.858 97.6828 107.319 97.6828Z" fill="#E6E6E6"/>
<path id="Vector_6" d="M78.1157 89.0403H17.6775C17.4105 89.0406 17.1461 88.9883 16.8993 88.8862C16.6526 88.7842 16.4283 88.6344 16.2394 88.4456C16.0505 88.2567 15.9007 88.0324 15.7984 87.7855C15.6962 87.5387 15.6436 87.274 15.6436 87.0068C15.6436 86.7395 15.6962 86.4749 15.7984 86.228C15.9007 85.9812 16.0505 85.7569 16.2394 85.568C16.4283 85.3791 16.6526 85.2294 16.8993 85.1274C17.1461 85.0253 17.4105 84.9729 17.6775 84.9733H78.1157C78.6541 84.9739 79.1702 85.1884 79.5507 85.5697C79.9311 85.951 80.1448 86.4679 80.1448 87.0068C80.1448 87.5457 79.9311 88.0626 79.5507 88.4439C79.1702 88.8252 78.6541 89.0397 78.1157 89.0403Z" fill="#E6E6E6"/>
<path id="Vector_7" d="M155.486 68.9218C155.305 68.9217 155.126 68.8838 154.961 68.8106C154.796 68.7374 154.648 68.6305 154.527 68.4967L140.135 52.7812C139.972 52.6033 139.773 52.4612 139.552 52.3639C139.331 52.2666 139.093 52.2162 138.851 52.2159H62.8004C61.6462 52.2146 60.5398 51.7551 59.7237 50.9382C58.9076 50.1214 58.4486 49.0138 58.4473 47.8586V20.4061C58.4486 19.2508 58.9076 18.1433 59.7237 17.3264C60.5398 16.5095 61.6462 16.05 62.8004 16.0487H161.33C162.484 16.05 163.59 16.5095 164.407 17.3264C165.223 18.1433 165.682 19.2508 165.683 20.4061V47.8586C165.682 49.0138 165.223 50.1214 164.407 50.9383C163.59 51.7551 162.484 52.2146 161.33 52.2159H158.537C158.075 52.2165 157.632 52.4003 157.306 52.7271C156.979 53.0539 156.796 53.497 156.795 53.9592V67.6135C156.796 67.8771 156.717 68.1348 156.568 68.3523C156.42 68.5699 156.208 68.737 155.963 68.8315C155.811 68.8911 155.649 68.9217 155.486 68.9218Z" fill="white"/>
<path id="Vector_8" d="M155.486 68.9218C155.305 68.9217 155.126 68.8838 154.961 68.8106C154.796 68.7374 154.648 68.6305 154.527 68.4967L140.135 52.7812C139.972 52.6033 139.773 52.4612 139.552 52.3639C139.331 52.2666 139.093 52.2162 138.851 52.2159H62.8004C61.6462 52.2146 60.5398 51.7551 59.7237 50.9382C58.9076 50.1214 58.4486 49.0138 58.4473 47.8586V20.4061C58.4486 19.2508 58.9076 18.1433 59.7237 17.3264C60.5398 16.5095 61.6462 16.05 62.8004 16.0487H161.33C162.484 16.05 163.59 16.5095 164.407 17.3264C165.223 18.1433 165.682 19.2508 165.683 20.4061V47.8586C165.682 49.0138 165.223 50.1214 164.407 50.9383C163.59 51.7551 162.484 52.2146 161.33 52.2159H158.537C158.075 52.2165 157.632 52.4003 157.306 52.7271C156.979 53.0539 156.796 53.497 156.795 53.9592V67.6135C156.796 67.8771 156.717 68.1348 156.568 68.3523C156.42 68.5699 156.208 68.737 155.963 68.8315C155.811 68.8911 155.649 68.9217 155.486 68.9218ZM62.8004 16.6293C61.8 16.6305 60.841 17.0287 60.1337 17.7368C59.4263 18.4448 59.0284 19.4048 59.0273 20.4061V47.8586C59.0285 48.8599 59.4263 49.8198 60.1337 50.5279C60.841 51.2359 61.8 51.6342 62.8004 51.6353H138.851C139.173 51.6357 139.491 51.7028 139.786 51.8325C140.08 51.9622 140.345 52.1517 140.562 52.3889L154.954 68.1043C155.053 68.2122 155.182 68.2877 155.324 68.3209C155.467 68.3542 155.616 68.3435 155.752 68.2905C155.889 68.2374 156.006 68.1444 156.088 68.0236C156.171 67.9028 156.215 67.7598 156.215 67.6135V53.9592C156.216 53.3431 156.46 52.7524 156.896 52.3167C157.331 51.8811 157.921 51.636 158.537 51.6353H161.33C162.33 51.6342 163.289 51.2359 163.997 50.5279C164.704 49.8198 165.102 48.8599 165.103 47.8586V20.4061C165.102 19.4048 164.704 18.4448 163.997 17.7368C163.289 17.0287 162.33 16.6305 161.33 16.6293H62.8004Z" fill="#636A7C"/>
<path id="Vector_9" d="M69.125 28.1588C71.2288 28.1588 72.9342 26.4517 72.9342 24.3459C72.9342 22.2402 71.2288 20.5331 69.125 20.5331C67.0213 20.5331 65.3159 22.2402 65.3159 24.3459C65.3159 26.4517 67.0213 28.1588 69.125 28.1588Z" fill="#9095A3"/>
<path id="Vector_10" d="M156.886 45.4438H67.2444C66.9774 45.4441 66.713 45.3917 66.4662 45.2897C66.2195 45.1876 65.9952 45.0379 65.8063 44.849C65.6174 44.6602 65.4676 44.4359 65.3653 44.189C65.2631 43.9421 65.2104 43.6775 65.2104 43.4103C65.2104 43.143 65.2631 42.8784 65.3653 42.6315C65.4676 42.3846 65.6174 42.1603 65.8063 41.9715C65.9952 41.7826 66.2195 41.6329 66.4662 41.5308C66.713 41.4288 66.9774 41.3764 67.2444 41.3767H156.886C157.424 41.3774 157.94 41.5919 158.321 41.9732C158.701 42.3545 158.915 42.8714 158.915 43.4103C158.915 43.9492 158.701 44.466 158.321 44.8473C157.94 45.2286 157.424 45.4431 156.886 45.4438Z" fill="#E6E6E6"/>
<path id="Vector_11" d="M127.683 36.8013H67.2444C66.9774 36.8016 66.713 36.7492 66.4662 36.6472C66.2195 36.5451 65.9952 36.3954 65.8063 36.2065C65.6174 36.0177 65.4676 35.7934 65.3653 35.5465C65.2631 35.2996 65.2104 35.035 65.2104 34.7678C65.2104 34.5005 65.2631 34.2359 65.3653 33.989C65.4676 33.7421 65.6174 33.5178 65.8063 33.329C65.9952 33.1401 66.2195 32.9904 66.4662 32.8883C66.713 32.7863 66.9774 32.7339 67.2444 32.7342H127.683C128.221 32.7342 128.738 32.9485 129.119 33.3298C129.5 33.7112 129.714 34.2284 129.714 34.7678C129.714 35.3071 129.5 35.8243 129.119 36.2057C128.738 36.587 128.221 36.8013 127.683 36.8013Z" fill="#E6E6E6"/>
</g>
</g>
</svg>
