<svg width="32" height="32" viewBox="0 0 32 32" fill="none" xmlns="http://www.w3.org/2000/svg">
    <path opacity="0.2" d="M27 6V11H5V6C5 5.73478 5.10536 5.48043 5.29289 5.29289C5.48043 5.10536 5.73478 5 6 5H26C26.2652 5 26.5196 5.10536 26.7071 5.29289C26.8946 5.48043 27 5.73478 27 6Z" fill="#5B76BC"/>
    <path d="M26 4H23V3C23 2.73478 22.8946 2.48043 22.7071 2.29289C22.5196 2.10536 22.2652 2 22 2C21.7348 2 21.4804 2.10536 21.2929 2.29289C21.1054 2.48043 21 2.73478 21 3V4H11V3C11 2.73478 10.8946 2.48043 10.7071 2.29289C10.5196 2.10536 10.2652 2 10 2C9.73478 2 9.48043 2.10536 9.29289 2.29289C9.10536 2.48043 9 2.73478 9 3V4H6C5.46957 4 4.96086 4.21071 4.58579 4.58579C4.21071 4.96086 4 5.46957 4 6V26C4 26.5304 4.21071 27.0391 4.58579 27.4142C4.96086 27.7893 5.46957 28 6 28H26C26.5304 28 27.0391 27.7893 27.4142 27.4142C27.7893 27.0391 28 26.5304 28 26V6C28 5.46957 27.7893 4.96086 27.4142 4.58579C27.0391 4.21071 26.5304 4 26 4ZM9 6V7C9 7.26522 9.10536 7.51957 9.29289 7.70711C9.48043 7.89464 9.73478 8 10 8C10.2652 8 10.5196 7.89464 10.7071 7.70711C10.8946 7.51957 11 7.26522 11 7V6H21V7C21 7.26522 21.1054 7.51957 21.2929 7.70711C21.4804 7.89464 21.7348 8 22 8C22.2652 8 22.5196 7.89464 22.7071 7.70711C22.8946 7.51957 23 7.26522 23 7V6H26V10H6V6H9ZM26 26H6V12H26V26Z" fill="#5B76BC"/>
    <path d="M16.9998 15.3637V22.6364C16.9998 22.7328 16.9697 22.8253 16.9161 22.8935C16.8625 22.9617 16.7899 23 16.7141 23C16.6383 23 16.5657 22.9617 16.5121 22.8935C16.4585 22.8253 16.4284 22.7328 16.4284 22.6364V16.006L15 17C14.935 17.0497 14.8572 17.0644 14.7837 17.0411C14.7101 17.0177 14.6469 16.9582 14.6079 16.8755C14.5688 16.7928 14.5572 16.6937 14.5756 16.6001C14.5939 16.5065 14.6407 16.426 14.7057 16.3764L16.567 15.0519C16.6103 15.0188 16.6598 15.0009 16.7104 15C16.761 14.9992 16.8108 15.0155 16.8548 15.0472C16.8989 15.0789 16.9355 15.1249 16.9609 15.1805C16.9864 15.2361 16.9998 15.2994 16.9998 15.3637Z" fill="#5B76BC" stroke="#5B76BC" stroke-width="1.2"/>
</svg>
