<svg preserveAspectRatio="xMidYMid meet" viewBox="0 0 24 24" fill="none" xmlns="http://www.w3.org/2000/svg">
<g id="ListBullets">
<path id="Vector" d="M7.5 6.27441C7.5 6.0755 7.57902 5.88474 7.71967 5.74408C7.86032 5.60343 8.05109 5.52441 8.25 5.52441H20.25C20.4489 5.52441 20.6397 5.60343 20.7803 5.74408C20.921 5.88474 21 6.0755 21 6.27441C21 6.47333 20.921 6.66409 20.7803 6.80474C20.6397 6.9454 20.4489 7.02441 20.25 7.02441H8.25C8.05109 7.02441 7.86032 6.9454 7.71967 6.80474C7.57902 6.66409 7.5 6.47333 7.5 6.27441ZM20.25 11.5244H8.25C8.05109 11.5244 7.86032 11.6034 7.71967 11.7441C7.57902 11.8847 7.5 12.0755 7.5 12.2744C7.5 12.4733 7.57902 12.6641 7.71967 12.8047C7.86032 12.9454 8.05109 13.0244 8.25 13.0244H20.25C20.4489 13.0244 20.6397 12.9454 20.7803 12.8047C20.921 12.6641 21 12.4733 21 12.2744C21 12.0755 20.921 11.8847 20.7803 11.7441C20.6397 11.6034 20.4489 11.5244 20.25 11.5244ZM20.25 17.5244H8.25C8.05109 17.5244 7.86032 17.6034 7.71967 17.7441C7.57902 17.8847 7.5 18.0755 7.5 18.2744C7.5 18.4733 7.57902 18.6641 7.71967 18.8047C7.86032 18.9454 8.05109 19.0244 8.25 19.0244H20.25C20.4489 19.0244 20.6397 18.9454 20.7803 18.8047C20.921 18.6641 21 18.4733 21 18.2744C21 18.0755 20.921 17.8847 20.7803 17.7441C20.6397 17.6034 20.4489 17.5244 20.25 17.5244ZM4.125 5.14941C3.9025 5.14941 3.68499 5.21539 3.49998 5.33901C3.31498 5.46263 3.17078 5.63833 3.08564 5.8439C3.00049 6.04946 2.97821 6.27566 3.02162 6.49389C3.06503 6.71212 3.17217 6.91258 3.32951 7.06991C3.48684 7.22724 3.6873 7.33439 3.90552 7.3778C4.12375 7.42121 4.34995 7.39893 4.55552 7.31378C4.76109 7.22863 4.93679 7.08444 5.0604 6.89943C5.18402 6.71442 5.25 6.49692 5.25 6.27441C5.25 5.97605 5.13147 5.6899 4.9205 5.47892C4.70952 5.26794 4.42337 5.14941 4.125 5.14941ZM4.125 11.1494C3.9025 11.1494 3.68499 11.2154 3.49998 11.339C3.31498 11.4626 3.17078 11.6383 3.08564 11.8439C3.00049 12.0495 2.97821 12.2757 3.02162 12.4939C3.06503 12.7121 3.17217 12.9126 3.32951 13.0699C3.48684 13.2272 3.6873 13.3344 3.90552 13.3778C4.12375 13.4212 4.34995 13.3989 4.55552 13.3138C4.76109 13.2286 4.93679 13.0844 5.0604 12.8994C5.18402 12.7144 5.25 12.4969 5.25 12.2744C5.25 11.976 5.13147 11.6899 4.9205 11.4789C4.70952 11.2679 4.42337 11.1494 4.125 11.1494ZM4.125 17.1494C3.9025 17.1494 3.68499 17.2154 3.49998 17.339C3.31498 17.4626 3.17078 17.6383 3.08564 17.8439C3.00049 18.0495 2.97821 18.2757 3.02162 18.4939C3.06503 18.7121 3.17217 18.9126 3.32951 19.0699C3.48684 19.2272 3.6873 19.3344 3.90552 19.3778C4.12375 19.4212 4.34995 19.3989 4.55552 19.3138C4.76109 19.2286 4.93679 19.0844 5.0604 18.8994C5.18402 18.7144 5.25 18.4969 5.25 18.2744C5.25 17.976 5.13147 17.6899 4.9205 17.4789C4.70952 17.2679 4.42337 17.1494 4.125 17.1494Z" fill="#343330"/>
</g>
</svg>
