<svg width="32" height="32" fill="none" xmlns="http://www.w3.org/2000/svg"><path opacity=".2" d="M16 16.136V29a1 1 0 0 1-.48-.125l-11-6.023a1 1 0 0 1-.52-.875V10.023a1 1 0 0 1 .088-.407L16 16.136z" fill="#5B76BC"/><path d="M27.96 8.269l-11-6.019a1.985 1.985 0 0 0-1.92 0l-11 6.021A2 2 0 0 0 3 10.021v11.955a2 2 0 0 0 1.04 1.75l11 6.021a1.985 1.985 0 0 0 1.92 0l11-6.02a2 2 0 0 0 1.04-1.75V10.022a2 2 0 0 0-1.04-1.754zM16 4l10.043 5.5-3.722 2.037-10.044-5.5L16 4zm0 11L5.957 9.5l4.238-2.32 10.043 5.5L16 15zM5 11.25l10 5.473v10.723L5 21.977V11.25zm22 10.723l-10 5.473V16.727l4-2.188V19a1 1 0 0 0 2 0v-5.556l4-2.194v10.723z" fill="#5B76BC"/></svg>