<svg preserveAspectRatio="xMidYMid meet" viewBox="0 0 24 24" fill="none" xmlns="http://www.w3.org/2000/svg">
<g id="ChatTeardropText">
<path id="Vector" d="M8.25 10.5C8.25 10.6989 8.32902 10.8897 8.46967 11.0303C8.61032 11.171 8.80109 11.25 9 11.25H15C15.1989 11.25 15.3897 11.171 15.5303 11.0303C15.671 10.8897 15.75 10.6989 15.75 10.5C15.75 10.3011 15.671 10.1103 15.5303 9.96967C15.3897 9.82902 15.1989 9.75 15 9.75H9C8.80109 9.75 8.61032 9.82902 8.46967 9.96967C8.32902 10.1103 8.25 10.3011 8.25 10.5ZM9 12.75H15C15.1989 12.75 15.3897 12.829 15.5303 12.9697C15.671 13.1103 15.75 13.3011 15.75 13.5C15.75 13.6989 15.671 13.8897 15.5303 14.0303C15.3897 14.171 15.1989 14.25 15 14.25H9C8.80109 14.25 8.61032 14.171 8.46967 14.0303C8.32902 13.8897 8.25 13.6989 8.25 13.5C8.25 13.3011 8.32902 13.1103 8.46967 12.9697C8.61032 12.829 8.80109 12.75 9 12.75ZM2.25 11.625C2.25273 14.1106 3.24133 16.4935 4.99889 18.2511C6.75645 20.0087 9.13943 20.9973 11.625 21H19.5309C19.9204 20.9995 20.2938 20.8446 20.5692 20.5692C20.8446 20.2938 20.9995 19.9204 21 19.5309V11.625C21 9.1386 20.0123 6.75403 18.2541 4.99587C16.496 3.23772 14.1114 2.25 11.625 2.25C9.1386 2.25 6.75403 3.23772 4.99587 4.99587C3.23772 6.75403 2.25 9.1386 2.25 11.625ZM3.75 11.625C3.75 9.53642 4.57969 7.53338 6.05653 6.05653C7.53338 4.57969 9.53642 3.75 11.625 3.75C13.7136 3.75 15.7166 4.57969 17.1935 6.05653C18.6703 7.53338 19.5 9.53642 19.5 11.625V19.5H11.625C9.53711 19.4978 7.53537 18.6674 6.059 17.191C4.58264 15.7146 3.75223 13.7129 3.75 11.625Z" fill="#343330"/>
</g>
</svg>
