<svg xmlns="http://www.w3.org/2000/svg" preserveAspectRatio="xMidYMid meet" viewBox="0 0 16 16" fill="none">
    <path d="M14.25 8C14.25 8.19891 14.171 8.38968 14.0303 8.53033C13.8897 8.67098 13.6989 8.75 13.5 8.75H2.5C2.30109 8.75 2.11032 8.67098 1.96967 8.53033C1.82902 8.38968 1.75 8.19891 1.75 8C1.75 7.80109 1.82902 7.61032 1.96967 7.46967C2.11032 7.32902 2.30109 7.25 2.5 7.25H13.5C13.6989 7.25 13.8897 7.32902 14.0303 7.46967C14.171 7.61032 14.25 7.80109 14.25 8ZM2.5 4.75H13.5C13.6989 4.75 13.8897 4.67098 14.0303 4.53033C14.171 4.38968 14.25 4.19891 14.25 4C14.25 3.80109 14.171 3.61032 14.0303 3.46967C13.8897 3.32902 13.6989 3.25 13.5 3.25H2.5C2.30109 3.25 2.11032 3.32902 1.96967 3.46967C1.82902 3.61032 1.75 3.80109 1.75 4C1.75 4.19891 1.82902 4.38968 1.96967 4.53033C2.11032 4.67098 2.30109 4.75 2.5 4.75ZM13.5 11.25H2.5C2.30109 11.25 2.11032 11.329 1.96967 11.4697C1.82902 11.6103 1.75 11.8011 1.75 12C1.75 12.1989 1.82902 12.3897 1.96967 12.5303C2.11032 12.671 2.30109 12.75 2.5 12.75H13.5C13.6989 12.75 13.8897 12.671 14.0303 12.5303C14.171 12.3897 14.25 12.1989 14.25 12C14.25 11.8011 14.171 11.6103 14.0303 11.4697C13.8897 11.329 13.6989 11.25 13.5 11.25Z" fill="#5B76BC"/>
</svg>