<svg xmlns="http://www.w3.org/2000/svg" preserveAspectRatio="xMidYMid meet" viewBox="0 0 20 20" fill="none">
    <path d="M1.875 8.12498H3.75V13.125H2.5C2.33424 13.125 2.17527 13.1908 2.05806 13.308C1.94085 13.4252 1.875 13.5842 1.875 13.75C1.875 13.9157 1.94085 14.0747 2.05806 14.1919C2.17527 14.3091 2.33424 14.375 2.5 14.375H17.5C17.6658 14.375 17.8247 14.3091 17.9419 14.1919C18.0592 14.0747 18.125 13.9157 18.125 13.75C18.125 13.5842 18.0592 13.4252 17.9419 13.308C17.8247 13.1908 17.6658 13.125 17.5 13.125H16.25V8.12498H18.125C18.261 8.12484 18.3932 8.08035 18.5016 7.99827C18.6101 7.91618 18.6887 7.80097 18.7258 7.67012C18.7628 7.53927 18.7561 7.39992 18.7068 7.2732C18.6574 7.14648 18.5681 7.03931 18.4523 6.96795L10.3273 1.96795C10.2289 1.90741 10.1156 1.87537 10 1.87537C9.88442 1.87537 9.77111 1.90741 9.67266 1.96795L1.54766 6.96795C1.4319 7.03931 1.34257 7.14648 1.29323 7.2732C1.24388 7.39992 1.23722 7.53927 1.27424 7.67012C1.31126 7.80097 1.38994 7.91618 1.49836 7.99827C1.60678 8.08035 1.73901 8.12484 1.875 8.12498ZM5 8.12498H7.5V13.125H5V8.12498ZM11.25 8.12498V13.125H8.75V8.12498H11.25ZM15 13.125H12.5V8.12498H15V13.125ZM10 3.23357L15.9172 6.87498H4.08281L10 3.23357ZM19.375 16.25C19.375 16.4157 19.3092 16.5747 19.1919 16.6919C19.0747 16.8091 18.9158 16.875 18.75 16.875H1.25C1.08424 16.875 0.925268 16.8091 0.808058 16.6919C0.690848 16.5747 0.625 16.4157 0.625 16.25C0.625 16.0842 0.690848 15.9252 0.808058 15.808C0.925268 15.6908 1.08424 15.625 1.25 15.625H18.75C18.9158 15.625 19.0747 15.6908 19.1919 15.808C19.3092 15.9252 19.375 16.0842 19.375 16.25Z" fill="#636A7C"/>
</svg>