<svg xmlns="http://www.w3.org/2000/svg" preserveAspectRatio="xMidYMid meet" viewBox="0 0 20 20" fill="none">
    <path d="M16.25 2.5H14.375V1.875C14.375 1.70924 14.3092 1.55027 14.1919 1.43306C14.0747 1.31585 13.9158 1.25 13.75 1.25C13.5842 1.25 13.4253 1.31585 13.3081 1.43306C13.1908 1.55027 13.125 1.70924 13.125 1.875V2.5H6.875V1.875C6.875 1.70924 6.80915 1.55027 6.69194 1.43306C6.57473 1.31585 6.41576 1.25 6.25 1.25C6.08424 1.25 5.92527 1.31585 5.80806 1.43306C5.69085 1.55027 5.625 1.70924 5.625 1.875V2.5H3.75C3.41848 2.5 3.10054 2.6317 2.86612 2.86612C2.6317 3.10054 2.5 3.41848 2.5 3.75V16.25C2.5 16.5815 2.6317 16.8995 2.86612 17.1339C3.10054 17.3683 3.41848 17.5 3.75 17.5H16.25C16.5815 17.5 16.8995 17.3683 17.1339 17.1339C17.3683 16.8995 17.5 16.5815 17.5 16.25V3.75C17.5 3.41848 17.3683 3.10054 17.1339 2.86612C16.8995 2.6317 16.5815 2.5 16.25 2.5ZM5.625 3.75V4.375C5.625 4.54076 5.69085 4.69973 5.80806 4.81694C5.92527 4.93415 6.08424 5 6.25 5C6.41576 5 6.57473 4.93415 6.69194 4.81694C6.80915 4.69973 6.875 4.54076 6.875 4.375V3.75H13.125V4.375C13.125 4.54076 13.1908 4.69973 13.3081 4.81694C13.4253 4.93415 13.5842 5 13.75 5C13.9158 5 14.0747 4.93415 14.1919 4.81694C14.3092 4.69973 14.375 4.54076 14.375 4.375V3.75H16.25V6.25H3.75V3.75H5.625ZM16.25 16.25H3.75V7.5H16.25V16.25ZM12.3172 10.4422L10.8836 11.875L12.3172 13.3078C12.3753 13.3659 12.4213 13.4348 12.4527 13.5107C12.4842 13.5866 12.5003 13.6679 12.5003 13.75C12.5003 13.8321 12.4842 13.9134 12.4527 13.9893C12.4213 14.0652 12.3753 14.1341 12.3172 14.1922C12.2591 14.2503 12.1902 14.2963 12.1143 14.3277C12.0384 14.3592 11.9571 14.3753 11.875 14.3753C11.7929 14.3753 11.7116 14.3592 11.6357 14.3277C11.5598 14.2963 11.4909 14.2503 11.4328 14.1922L10 12.7586L8.56719 14.1922C8.50912 14.2503 8.44018 14.2963 8.36431 14.3277C8.28844 14.3592 8.20712 14.3753 8.125 14.3753C8.04288 14.3753 7.96156 14.3592 7.88569 14.3277C7.80982 14.2963 7.74088 14.2503 7.68281 14.1922C7.62474 14.1341 7.57868 14.0652 7.54725 13.9893C7.51583 13.9134 7.49965 13.8321 7.49965 13.75C7.49965 13.6679 7.51583 13.5866 7.54725 13.5107C7.57868 13.4348 7.62474 13.3659 7.68281 13.3078L9.11641 11.875L7.68281 10.4422C7.56554 10.3249 7.49965 10.1659 7.49965 10C7.49965 9.83415 7.56554 9.67509 7.68281 9.55781C7.80009 9.44054 7.95915 9.37465 8.125 9.37465C8.29085 9.37465 8.44991 9.44054 8.56719 9.55781L10 10.9914L11.4328 9.55781C11.4909 9.49974 11.5598 9.45368 11.6357 9.42225C11.7116 9.39083 11.7929 9.37465 11.875 9.37465C11.9571 9.37465 12.0384 9.39083 12.1143 9.42225C12.1902 9.45368 12.2591 9.49974 12.3172 9.55781C12.3753 9.61588 12.4213 9.68482 12.4527 9.76069C12.4842 9.83656 12.5003 9.91788 12.5003 10C12.5003 10.0821 12.4842 10.1634 12.4527 10.2393C12.4213 10.3152 12.3753 10.3841 12.3172 10.4422Z" fill="#636A7C"/>
</svg>