<svg preserveAspectRatio="xMidYMid meet" viewBox="0 0 24 24" fill="none" xmlns="http://www.w3.org/2000/svg">
<path fill-rule="evenodd" clip-rule="evenodd" d="M2 4.6087C2 3.16795 3.16795 2 4.6087 2H19.3913C20.832 2 22 3.16795 22 4.6087V19.3913C22 20.832 20.832 22 19.3913 22H4.6087C3.16795 22 2 20.832 2 19.3913V4.6087ZM4.6087 3.73913C4.12845 3.73913 3.73913 4.12845 3.73913 4.6087V19.3913C3.73913 19.8716 4.12845 20.2609 4.6087 20.2609H19.3913C19.8716 20.2609 20.2609 19.8716 20.2609 19.3913V4.6087C20.2609 4.12845 19.8716 3.73913 19.3913 3.73913H4.6087Z" fill="#202939"/>
<path fill-rule="evenodd" clip-rule="evenodd" d="M21.13 9.82604H2.86914V8.08691H21.13V9.82604Z" fill="#202939"/>
<path fill-rule="evenodd" clip-rule="evenodd" d="M21.13 15.913H2.86914V14.1738H21.13V15.913Z" fill="#202939"/>
<path fill-rule="evenodd" clip-rule="evenodd" d="M14.173 20.2604L14.173 2.86914L15.9121 2.86914L15.9121 20.2604L14.173 20.2604Z" fill="#202939"/>
<path fill-rule="evenodd" clip-rule="evenodd" d="M8.08704 20.2604L8.08704 2.86914L9.82617 2.86914L9.82617 20.2604L8.08704 20.2604Z" fill="#202939"/>
</svg>
