<svg xmlns="http://www.w3.org/2000/svg" preserveAspectRatio="xMidYMid meet" viewBox="0 0 24 24" fill="none">
<path d="M21 4.5V14.25C21 14.6478 20.842 15.0294 20.5607 15.3107C20.2794 15.592 19.8978 15.75 19.5 15.75H10.5V17.25C10.5001 17.3984 10.4562 17.5435 10.3738 17.667C10.2914 17.7904 10.1742 17.8867 10.0371 17.9435C9.89998 18.0003 9.74908 18.0151 9.60352 17.9861C9.45796 17.9572 9.32427 17.8856 9.21937 17.7806L6.96937 15.5306C6.89964 15.461 6.84432 15.3783 6.80658 15.2872C6.76884 15.1962 6.74941 15.0986 6.74941 15C6.74941 14.9014 6.76884 14.8038 6.80658 14.7128C6.84432 14.6217 6.89964 14.539 6.96937 14.4694L9.21937 12.2194C9.32427 12.1144 9.45796 12.0428 9.60352 12.0139C9.74908 11.9849 9.89998 11.9997 10.0371 12.0565C10.1742 12.1133 10.2914 12.2096 10.3738 12.333C10.4562 12.4565 10.5001 12.6016 10.5 12.75V14.25H19.5V4.5H9V5.25C9 5.44891 8.92098 5.63968 8.78033 5.78033C8.63968 5.92098 8.44891 6 8.25 6C8.05109 6 7.86032 5.92098 7.71967 5.78033C7.57902 5.63968 7.5 5.44891 7.5 5.25V4.5C7.5 4.10218 7.65804 3.72064 7.93934 3.43934C8.22064 3.15804 8.60218 3 9 3H19.5C19.8978 3 20.2794 3.15804 20.5607 3.43934C20.842 3.72064 21 4.10218 21 4.5ZM15.75 18C15.5511 18 15.3603 18.079 15.2197 18.2197C15.079 18.3603 15 18.5511 15 18.75V19.5H4.5V9.75H13.5V11.25C13.4999 11.3984 13.5438 11.5435 13.6262 11.667C13.7086 11.7904 13.8258 11.8867 13.9629 11.9435C14.1 12.0003 14.2509 12.0151 14.3965 11.9861C14.542 11.9572 14.6757 11.8856 14.7806 11.7806L17.0306 9.53063C17.1004 9.46097 17.1557 9.37825 17.1934 9.28721C17.2312 9.19616 17.2506 9.09856 17.2506 9C17.2506 8.90144 17.2312 8.80384 17.1934 8.71279C17.1557 8.62175 17.1004 8.53903 17.0306 8.46937L14.7806 6.21937C14.6757 6.11437 14.542 6.04284 14.3965 6.01385C14.2509 5.98487 14.1 5.99972 13.9629 6.05653C13.8258 6.11335 13.7086 6.20957 13.6262 6.33301C13.5438 6.45646 13.4999 6.60158 13.5 6.75V8.25H4.5C4.10218 8.25 3.72064 8.40804 3.43934 8.68934C3.15804 8.97064 3 9.35218 3 9.75V19.5C3 19.8978 3.15804 20.2794 3.43934 20.5607C3.72064 20.842 4.10218 21 4.5 21H15C15.3978 21 15.7794 20.842 16.0607 20.5607C16.342 20.2794 16.5 19.8978 16.5 19.5V18.75C16.5 18.5511 16.421 18.3603 16.2803 18.2197C16.1397 18.079 15.9489 18 15.75 18Z" fill="#636A7C"/>
</svg>