<svg preserveAspectRatio="xMidYMid meet" viewBox="0 0 24 24" fill="none" xmlns="http://www.w3.org/2000/svg">
<path d="M19.5 3H17.25V2.25C17.25 2.05109 17.171 1.86032 17.0303 1.71967C16.8897 1.57902 16.6989 1.5 16.5 1.5C16.3011 1.5 16.1103 1.57902 15.9697 1.71967C15.829 1.86032 15.75 2.05109 15.75 2.25V3H8.25V2.25C8.25 2.05109 8.17098 1.86032 8.03033 1.71967C7.88968 1.57902 7.69891 1.5 7.5 1.5C7.30109 1.5 7.11032 1.57902 6.96967 1.71967C6.82902 1.86032 6.75 2.05109 6.75 2.25V3H4.5C4.10218 3 3.72064 3.15804 3.43934 3.43934C3.15804 3.72064 3 4.10218 3 4.5V19.5C3 19.8978 3.15804 20.2794 3.43934 20.5607C3.72064 20.842 4.10218 21 4.5 21H19.5C19.8978 21 20.2794 20.842 20.5607 20.5607C20.842 20.2794 21 19.8978 21 19.5V4.5C21 4.10218 20.842 3.72064 20.5607 3.43934C20.2794 3.15804 19.8978 3 19.5 3ZM14.25 15H12.75V16.5C12.75 16.6989 12.671 16.8897 12.5303 17.0303C12.3897 17.171 12.1989 17.25 12 17.25C11.8011 17.25 11.6103 17.171 11.4697 17.0303C11.329 16.8897 11.25 16.6989 11.25 16.5V15H9.75C9.55109 15 9.36032 14.921 9.21967 14.7803C9.07902 14.6397 9 14.4489 9 14.25C9 14.0511 9.07902 13.8603 9.21967 13.7197C9.36032 13.579 9.55109 13.5 9.75 13.5H11.25V12C11.25 11.8011 11.329 11.6103 11.4697 11.4697C11.6103 11.329 11.8011 11.25 12 11.25C12.1989 11.25 12.3897 11.329 12.5303 11.4697C12.671 11.6103 12.75 11.8011 12.75 12V13.5H14.25C14.4489 13.5 14.6397 13.579 14.7803 13.7197C14.921 13.8603 15 14.0511 15 14.25C15 14.4489 14.921 14.6397 14.7803 14.7803C14.6397 14.921 14.4489 15 14.25 15ZM4.5 7.5V4.5H6.75V5.25C6.75 5.44891 6.82902 5.63968 6.96967 5.78033C7.11032 5.92098 7.30109 6 7.5 6C7.69891 6 7.88968 5.92098 8.03033 5.78033C8.17098 5.63968 8.25 5.44891 8.25 5.25V4.5H15.75V5.25C15.75 5.44891 15.829 5.63968 15.9697 5.78033C16.1103 5.92098 16.3011 6 16.5 6C16.6989 6 16.8897 5.92098 17.0303 5.78033C17.171 5.63968 17.25 5.44891 17.25 5.25V4.5H19.5V7.5H4.5Z" fill="#636A7C"/>
</svg>
