<svg preserveAspectRatio="xMidYMid meet" viewBox="0 0 24 24" fill="none" xmlns="http://www.w3.org/2000/svg">
    <path d="M20.9213 6.41438L19.4213 3.41438C19.3589 3.28977 19.2631 3.185 19.1445 3.11181C19.0259 3.03862 18.8893 2.9999 18.75 3H5.25C5.11067 2.9999 4.97406 3.03862 4.8555 3.11181C4.73693 3.185 4.6411 3.28977 4.57875 3.41438L3.07875 6.41438C3.02705 6.51871 3.00011 6.63356 3 6.75V19.5C3 19.8978 3.15804 20.2794 3.43934 20.5607C3.72064 20.842 4.10218 21 4.5 21H19.5C19.8978 21 20.2794 20.842 20.5607 20.5607C20.842 20.2794 21 19.8978 21 19.5V6.75C20.9999 6.63356 20.9729 6.51871 20.9213 6.41438ZM15.5306 14.7806L12.5306 17.7806C12.461 17.8504 12.3783 17.9057 12.2872 17.9434C12.1962 17.9812 12.0986 18.0006 12 18.0006C11.9014 18.0006 11.8038 17.9812 11.7128 17.9434C11.6217 17.9057 11.539 17.8504 11.4694 17.7806L8.46937 14.7806C8.32864 14.6399 8.24958 14.449 8.24958 14.25C8.24958 14.051 8.32864 13.8601 8.46937 13.7194C8.61011 13.5786 8.80098 13.4996 9 13.4996C9.19902 13.4996 9.38989 13.5786 9.53063 13.7194L11.25 15.4397V9.75C11.25 9.55109 11.329 9.36032 11.4697 9.21967C11.6103 9.07902 11.8011 9 12 9C12.1989 9 12.3897 9.07902 12.5303 9.21967C12.671 9.36032 12.75 9.55109 12.75 9.75V15.4397L14.4694 13.7194C14.6101 13.5786 14.801 13.4996 15 13.4996C15.199 13.4996 15.3899 13.5786 15.5306 13.7194C15.6714 13.8601 15.7504 14.051 15.7504 14.25C15.7504 14.449 15.6714 14.6399 15.5306 14.7806ZM4.96312 6L5.71312 4.5H18.2869L19.0369 6H4.96312Z"
          fill="#202939"/>
</svg>
