<svg preserveAspectRatio="xMidYMid meet" viewBox="0 0 24 24" fill="none" xmlns="http://www.w3.org/2000/svg">
    <path d="M18.75 2.99986H15.3506C14.9292 2.52804 14.4129 2.15054 13.8355 1.89207C13.2581 1.63361 12.6326 1.5 12 1.5C11.3674 1.5 10.7419 1.63361 10.1645 1.89207C9.58709 2.15054 9.07079 2.52804 8.64938 2.99986H5.25C4.85218 2.99986 4.47064 3.1579 4.18934 3.4392C3.90804 3.72051 3.75 4.10204 3.75 4.49986V20.2499C3.75 20.6477 3.90804 21.0292 4.18934 21.3105C4.47064 21.5918 4.85218 21.7499 5.25 21.7499H18.75C19.1478 21.7499 19.5294 21.5918 19.8107 21.3105C20.092 21.0292 20.25 20.6477 20.25 20.2499V4.49986C20.25 4.10204 20.092 3.72051 19.8107 3.4392C19.5294 3.1579 19.1478 2.99986 18.75 2.99986ZM12 2.99986C12.7956 2.99986 13.5587 3.31593 14.1213 3.87854C14.6839 4.44115 15 5.20421 15 5.99986H9C9 5.20421 9.31607 4.44115 9.87868 3.87854C10.4413 3.31593 11.2044 2.99986 12 2.99986ZM15 14.9999H9C8.80109 14.9999 8.61032 14.9208 8.46967 14.7802C8.32902 14.6395 8.25 14.4488 8.25 14.2499C8.25 14.051 8.32902 13.8602 8.46967 13.7195C8.61032 13.5789 8.80109 13.4999 9 13.4999H15C15.1989 13.4999 15.3897 13.5789 15.5303 13.7195C15.671 13.8602 15.75 14.051 15.75 14.2499C15.75 14.4488 15.671 14.6395 15.5303 14.7802C15.3897 14.9208 15.1989 14.9999 15 14.9999ZM15 11.9999H9C8.80109 11.9999 8.61032 11.9208 8.46967 11.7802C8.32902 11.6395 8.25 11.4488 8.25 11.2499C8.25 11.051 8.32902 10.8602 8.46967 10.7195C8.61032 10.5789 8.80109 10.4999 9 10.4999H15C15.1989 10.4999 15.3897 10.5789 15.5303 10.7195C15.671 10.8602 15.75 11.051 15.75 11.2499C15.75 11.4488 15.671 11.6395 15.5303 11.7802C15.3897 11.9208 15.1989 11.9999 15 11.9999Z"
          fill="#202939"/>
</svg>
