<svg preserveAspectRatio="xMidYMid meet" viewBox="0 0 120 45" fill="none" xmlns="http://www.w3.org/2000/svg">
<g id="Group 419">
<g id="Group">
<path id="Vector" d="M64.9782 20.4749H19.6338C18.0782 20.4749 16.8125 19.2093 16.8125 17.6537C16.8125 16.0981 18.0782 14.8324 19.6338 14.8324H64.9782C66.5338 14.8324 67.7995 16.0981 67.7995 17.6537C67.7995 19.2093 66.5338 20.4749 64.9782 20.4749Z" fill="#E6E6E6"/>
<path id="Vector_2" d="M100.365 30.0238H19.6338C18.0782 30.0238 16.8125 28.7581 16.8125 27.2025C16.8125 25.647 18.0782 24.3813 19.6338 24.3813H100.365C101.921 24.3813 103.187 25.647 103.187 27.2025C103.187 28.7581 101.921 30.0238 100.365 30.0238Z" fill="#E6E6E6"/>
</g>
<path id="Vector_3" d="M115.643 45H4.35728C1.95475 45 0 43.039 0 40.6287V4.37124C0 1.96101 1.95476 0 4.35728 0H115.643C118.045 0 120 1.96102 120 4.37124V40.6287C120 43.039 118.045 45 115.643 45ZM4.35728 0.76923C2.37745 0.76923 0.766773 2.38507 0.766773 4.37124V40.6287C0.766773 42.6149 2.37745 44.2308 4.35728 44.2308H115.643C117.623 44.2308 119.233 42.6149 119.233 40.6287V4.37124C119.233 2.38507 117.623 0.76923 115.643 0.76923H4.35728Z" fill="#BABCBE"/>
</g>
</svg>
