<svg xmlns="http://www.w3.org/2000/svg" preserveAspectRatio="xMidYMid meet" viewBox="0 0 20 20" fill="none">
    <path d="M9.50938 13.1348C9.57387 13.1977 9.65045 13.2477 9.73474 13.2817C9.81904 13.3158 9.9094 13.3333 10.0007 13.3333C10.0919 13.3333 10.1823 13.3158 10.2666 13.2817C10.3509 13.2477 10.4274 13.1977 10.4919 13.1348L13.9638 9.74951C14.0283 9.68661 14.0795 9.61193 14.1144 9.52974C14.1493 9.44755 14.1673 9.35946 14.1673 9.2705C14.1673 9.18154 14.1493 9.09345 14.1144 9.01126C14.0795 8.92907 14.0283 8.85439 13.9638 8.79149C13.8993 8.72858 13.8227 8.67868 13.7384 8.64464C13.6541 8.6106 13.5638 8.59307 13.4726 8.59307C13.3813 8.59307 13.291 8.6106 13.2067 8.64464C13.1224 8.67868 13.0458 8.72858 12.9813 8.79149L10.695 11.0215V3.17705C10.695 2.99749 10.6219 2.82528 10.4917 2.6983C10.3614 2.57133 10.1848 2.5 10.0007 2.5C9.81649 2.5 9.63987 2.57133 9.50965 2.6983C9.37943 2.82528 9.30627 2.99749 9.30627 3.17705V11.0215L7.02002 8.79149C6.88973 8.66445 6.71301 8.59307 6.52875 8.59307C6.34449 8.59307 6.16777 8.66445 6.03748 8.79149C5.90718 8.91853 5.83398 9.09084 5.83398 9.2705C5.83398 9.45017 5.90718 9.62247 6.03748 9.74951L9.50938 13.1348Z" fill="#636A7C"/>
    <path fill-rule="evenodd" clip-rule="evenodd" d="M1.66602 15.8333C1.66602 15.3731 1.96449 15 2.33268 15L17.666 15C18.0342 15 18.3327 15.3731 18.3327 15.8333C18.3327 16.2936 18.0342 16.6667 17.666 16.6667L2.33268 16.6667C1.96449 16.6667 1.66602 16.2936 1.66602 15.8333Z" fill="#636A7C"/>
</svg>