<svg width="16" height="16" viewBox="0 0 16 16" fill="none" xmlns="http://www.w3.org/2000/svg">
<path d="M1.75 1H14.25V13.5H1.75V1Z" fill="#9BB2F9"/>
<path d="M8.38136 10.8448C8.4821 10.8309 8.5741 10.8073 8.65735 10.7739C8.80104 10.7169 8.91231 10.6376 8.99116 10.5361C9.07001 10.4346 9.10944 10.318 9.10944 10.1862C9.10944 10.0633 9.07352 9.96001 9.00167 9.87631C8.93158 9.7926 8.8282 9.72137 8.69152 9.6626C8.60172 9.62348 8.49833 9.58674 8.38136 9.55235V10.8448Z" fill="#3C538F"/>
<path d="M7.9503 8.40731V7.18768C7.85854 7.20077 7.77618 7.22255 7.70323 7.25302C7.57531 7.30467 7.47718 7.3768 7.40884 7.4694C7.34225 7.56201 7.30896 7.66708 7.30896 7.78462C7.30546 7.88258 7.32561 7.96806 7.36942 8.04108C7.41497 8.11409 7.47718 8.17732 7.55603 8.23074C7.63489 8.28239 7.72601 8.3278 7.82939 8.36698C7.86868 8.3812 7.90898 8.39464 7.9503 8.40731Z" fill="#3C538F"/>
<path fill-rule="evenodd" clip-rule="evenodd" d="M16 3.5H0V15H16V3.5ZM7.9503 11.8231V12.4355H8.38136V11.8236C8.72899 11.8051 9.03214 11.7401 9.2908 11.6287C9.60271 11.4934 9.84102 11.3037 10.0057 11.0597C10.1722 10.814 10.2563 10.5237 10.2581 10.1889C10.2563 9.9609 10.2151 9.75877 10.1345 9.58246C10.0557 9.40615 9.94441 9.25299 9.80072 9.12298C9.65703 8.99297 9.48706 8.88345 9.2908 8.7944C9.09454 8.70536 8.87901 8.63412 8.64421 8.58069L8.38136 8.51681V7.18575C8.55905 7.20917 8.70625 7.26454 8.82294 7.35186C8.9824 7.47118 9.07264 7.63859 9.09367 7.85408H10.1845C10.1792 7.52817 10.0933 7.24145 9.92688 6.9939C9.76042 6.74635 9.52736 6.55312 9.22772 6.41421C8.98058 6.29896 8.69846 6.23152 8.38136 6.21189V5.59677H7.9503V6.21424C7.65008 6.23653 7.37672 6.30319 7.13023 6.41421C6.82182 6.55312 6.57913 6.74635 6.40215 6.9939C6.22692 7.24145 6.14018 7.53084 6.14194 7.86209C6.14018 8.26636 6.27073 8.58782 6.53357 8.82646C6.79642 9.0651 7.15476 9.24052 7.6086 9.35272L7.9503 9.43993V10.8475C7.83432 10.8335 7.72656 10.8072 7.627 10.7685C7.4728 10.7062 7.34926 10.6145 7.25639 10.4934C7.16527 10.3705 7.11358 10.2174 7.10131 10.0339H6C6.00876 10.4275 6.10251 10.7579 6.28124 11.025C6.46173 11.2904 6.71231 11.4907 7.03298 11.6261C7.30023 11.7382 7.606 11.8039 7.9503 11.8231Z" fill="#3C538F"/>
</svg>
