<svg preserveAspectRatio="xMidYMid meet" viewBox="0 0 254 32" fill="none" xmlns="http://www.w3.org/2000/svg">
    <path d="M12.9366 27.643L25.8728 20.1743L12.9366 12.7052L0 20.1743L12.9366 27.643Z" fill="#9BB2F9"/>
    <path d="M13.0009 19.2952L25.9375 11.8262L13.0009 4.35742L0.0646875 11.8262L13.0009 19.2952Z" fill="#3C538F"/>
    <path d="M18.6756 16.019L13.0009 19.2952L7.26187 15.9815L12.9366 12.7052L18.6756 16.019Z" fill="#9BB2F9"/>
    <path d="M35.9672 8.49502H38.544V19.1386H42.6376V21.0656H35.9672V8.49502Z" fill="#303D6C"/>
    <path d="M48.3204 19.0666C49.0392 19.0666 49.6545 18.8084 50.1662 18.2922C50.6901 17.7639 50.952 17.0255 50.952 16.077C50.952 15.1165 50.6962 14.3781 50.1845 13.8618C49.6728 13.3456 49.0514 13.0874 48.3204 13.0874C47.6016 13.0874 46.9924 13.3456 46.4929 13.8618C45.9934 14.3781 45.7436 15.1165 45.7436 16.077C45.7436 17.0375 45.9934 17.7759 46.4929 18.2922C46.9924 18.8084 47.6016 19.0666 48.3204 19.0666ZM44.6106 19.787C43.6237 18.8385 43.1303 17.5958 43.1303 16.059C43.1303 14.5222 43.6298 13.2855 44.6288 12.349C45.6279 11.4126 46.8645 10.9443 48.3387 10.9443C49.8251 10.9443 51.0678 11.4126 52.0668 12.349C53.0658 13.2855 53.5654 14.5222 53.5654 16.059C53.5654 17.5958 53.0597 18.8385 52.0485 19.787C51.0495 20.7355 49.8068 21.2097 48.3204 21.2097C46.834 21.2097 45.5974 20.7355 44.6106 19.787Z"
          fill="#303D6C"/>
    <path d="M61.5064 18.2381C62.0425 17.7099 62.3105 16.9895 62.3105 16.077C62.3105 15.1645 62.0425 14.4502 61.5064 13.9339C60.9704 13.4056 60.3429 13.1415 59.6241 13.1415C58.9053 13.1415 58.2778 13.3996 57.7418 13.9159C57.2179 14.4321 56.9559 15.1465 56.9559 16.059C56.9559 16.9715 57.224 17.6919 57.7601 18.2201C58.2961 18.7484 58.9175 19.0126 59.6241 19.0126C60.3429 19.0126 60.9704 18.7544 61.5064 18.2381ZM55.695 19.769C54.7934 18.7964 54.3426 17.5598 54.3426 16.059C54.3426 14.5582 54.7934 13.3336 55.695 12.3851C56.5965 11.4246 57.7418 10.9443 59.1307 10.9443C60.5196 10.9443 61.5795 11.5086 62.3105 12.6372V11.0884H64.869V21.0656H62.3105V19.3908C61.543 20.6034 60.4769 21.2097 59.1124 21.2097C57.7479 21.2097 56.6087 20.7295 55.695 19.769Z"
          fill="#303D6C"/>
    <path d="M69.6301 11.0884V12.5832C70.2758 11.4906 71.3236 10.9443 72.7734 10.9443C73.9309 10.9443 74.8751 11.3225 75.6061 12.0789C76.3371 12.8233 76.7026 13.8618 76.7026 15.1945V21.0656H74.1441V15.5547C74.1441 14.7743 73.943 14.18 73.541 13.7718C73.1389 13.3516 72.5907 13.1415 71.8962 13.1415C71.2018 13.1415 70.6474 13.3516 70.2332 13.7718C69.8311 14.18 69.6301 14.7743 69.6301 15.5547V21.0656H67.0533V11.0884H69.6301Z"
          fill="#303D6C"/>
    <path d="M92.358 17.7519C93.0768 16.9955 93.4362 15.993 93.4362 14.7443C93.4362 13.4957 93.0768 12.4991 92.358 11.7547C91.6392 11.0103 90.7011 10.6381 89.5437 10.6381C88.3862 10.6381 87.442 11.0163 86.711 11.7727C85.9922 12.5171 85.6328 13.5137 85.6328 14.7623C85.6328 15.999 85.9922 16.9955 86.711 17.7519C87.442 18.4963 88.3862 18.8685 89.5437 18.8685C90.7011 18.8685 91.6392 18.4963 92.358 17.7519ZM89.5437 21.1917C87.704 21.1917 86.1567 20.5854 84.9018 19.3727C83.6469 18.1601 83.0194 16.6233 83.0194 14.7623C83.0194 12.8893 83.6469 11.3465 84.9018 10.1339C86.1689 8.92125 87.7162 8.31493 89.5437 8.31493C91.3833 8.31493 92.9306 8.92125 94.1855 10.1339C95.4404 11.3465 96.0678 12.8893 96.0678 14.7623C96.0678 16.6233 95.4404 18.1601 94.1855 19.3727C92.9306 20.5854 91.3833 21.1917 89.5437 21.1917Z"
          fill="#303D6C"/>
    <path d="M100.127 11.0884V12.8533C100.81 11.5806 101.796 10.9443 103.088 10.9443V13.5377H102.448C101.681 13.5377 101.102 13.7298 100.712 14.114C100.322 14.4862 100.127 15.1345 100.127 16.059V21.0656H97.5506V11.0884H100.127Z"
          fill="#303D6C"/>
    <path d="M107.224 8.54905C107.224 8.98128 107.072 9.34747 106.767 9.64763C106.462 9.94779 106.091 10.0979 105.652 10.0979C105.226 10.0979 104.86 9.94779 104.556 9.64763C104.251 9.34747 104.099 8.98128 104.099 8.54905C104.099 8.11682 104.251 7.75063 104.556 7.45047C104.86 7.15031 105.226 7.00023 105.652 7.00023C106.091 7.00023 106.462 7.15031 106.767 7.45047C107.072 7.75063 107.224 8.11682 107.224 8.54905ZM104.373 21.0656V11.0884H106.95V21.0656H104.373Z"
          fill="#303D6C"/>
    <path d="M109.783 19.769C108.881 18.7964 108.43 17.5598 108.43 16.059C108.43 14.5582 108.881 13.3336 109.783 12.3851C110.684 11.4246 111.83 10.9443 113.218 10.9443C114.607 10.9443 115.667 11.5086 116.398 12.6372V11.0884H118.957V21.1377C118.957 22.5664 118.53 23.731 117.678 24.6315C116.825 25.544 115.625 26.0002 114.077 26.0002C112.542 26.0002 111.318 25.6821 110.404 25.0457C109.502 24.4214 108.991 23.5269 108.869 22.3623H111.391C111.549 22.8066 111.854 23.1547 112.305 23.4069C112.755 23.671 113.322 23.8031 114.004 23.8031C114.687 23.8031 115.253 23.581 115.704 23.1367C116.167 22.6925 116.398 22.0261 116.398 21.1377V19.3908C115.631 20.6034 114.565 21.2097 113.2 21.2097C111.836 21.2097 110.696 20.7295 109.783 19.769ZM115.594 18.2381C116.13 17.7099 116.398 16.9895 116.398 16.077C116.398 15.1645 116.13 14.4502 115.594 13.9339C115.058 13.4056 114.431 13.1415 113.712 13.1415C112.993 13.1415 112.366 13.3996 111.83 13.9159C111.306 14.4321 111.044 15.1465 111.044 16.059C111.044 16.9715 111.312 17.6919 111.848 18.2201C112.384 18.7484 113.005 19.0126 113.712 19.0126C114.431 19.0126 115.058 18.7544 115.594 18.2381Z"
          fill="#303D6C"/>
    <path d="M123.992 8.54905C123.992 8.98128 123.84 9.34747 123.535 9.64763C123.231 9.94779 122.859 10.0979 122.42 10.0979C121.994 10.0979 121.628 9.94779 121.324 9.64763C121.019 9.34747 120.867 8.98128 120.867 8.54905C120.867 8.11682 121.019 7.75063 121.324 7.45047C121.628 7.15031 121.994 7.00023 122.42 7.00023C122.859 7.00023 123.231 7.15031 123.535 7.45047C123.84 7.75063 123.992 8.11682 123.992 8.54905ZM121.141 21.0656V11.0884H123.718V21.0656H121.141Z"
          fill="#303D6C"/>
    <path d="M128.488 11.0884V12.5832C129.134 11.4906 130.181 10.9443 131.631 10.9443C132.789 10.9443 133.733 11.3225 134.464 12.0789C135.195 12.8233 135.56 13.8618 135.56 15.1945V21.0656H133.002V15.5547C133.002 14.7743 132.801 14.18 132.399 13.7718C131.997 13.3516 131.448 13.1415 130.754 13.1415C130.06 13.1415 129.505 13.3516 129.091 13.7718C128.689 14.18 128.488 14.7743 128.488 15.5547V21.0656H125.911V11.0884H128.488Z"
          fill="#303D6C"/>
    <path d="M144.11 18.2381C144.646 17.7099 144.915 16.9895 144.915 16.077C144.915 15.1645 144.646 14.4502 144.11 13.9339C143.574 13.4056 142.947 13.1415 142.228 13.1415C141.509 13.1415 140.882 13.3996 140.346 13.9159C139.822 14.4321 139.56 15.1465 139.56 16.059C139.56 16.9715 139.828 17.6919 140.364 18.2201C140.9 18.7484 141.521 19.0126 142.228 19.0126C142.947 19.0126 143.574 18.7544 144.11 18.2381ZM138.299 19.769C137.397 18.7964 136.947 17.5598 136.947 16.059C136.947 14.5582 137.397 13.3336 138.299 12.3851C139.201 11.4246 140.346 10.9443 141.735 10.9443C143.124 10.9443 144.184 11.5086 144.915 12.6372V11.0884H147.473V21.0656H144.915V19.3908C144.147 20.6034 143.081 21.2097 141.716 21.2097C140.352 21.2097 139.213 20.7295 138.299 19.769Z"
          fill="#303D6C"/>
    <path d="M153.586 18.9405H154.811V21.0656H153.184C152.149 21.0656 151.351 20.8315 150.79 20.3633C150.23 19.895 149.95 19.1206 149.95 18.04V13.1595H148.871V11.0884H149.95V8.62109H152.526V11.0884H154.793V13.1595H152.526V18.04C152.526 18.3642 152.606 18.5983 152.764 18.7424C152.922 18.8745 153.197 18.9405 153.586 18.9405Z"
          fill="#303D6C"/>
    <path d="M159.117 8.54905C159.117 8.98128 158.964 9.34747 158.66 9.64763C158.355 9.94779 157.983 10.0979 157.545 10.0979C157.118 10.0979 156.753 9.94779 156.448 9.64763C156.144 9.34747 155.991 8.98128 155.991 8.54905C155.991 8.11682 156.144 7.75063 156.448 7.45047C156.753 7.15031 157.118 7.00023 157.545 7.00023C157.983 7.00023 158.355 7.15031 158.66 7.45047C158.964 7.75063 159.117 8.11682 159.117 8.54905ZM156.266 21.0656V11.0884H158.842V21.0656H156.266Z"
          fill="#303D6C"/>
    <path d="M165.531 19.0666C166.25 19.0666 166.865 18.8084 167.377 18.2922C167.901 17.7639 168.163 17.0255 168.163 16.077C168.163 15.1165 167.907 14.3781 167.395 13.8618C166.884 13.3456 166.262 13.0874 165.531 13.0874C164.813 13.0874 164.203 13.3456 163.704 13.8618C163.204 14.3781 162.955 15.1165 162.955 16.077C162.955 17.0375 163.204 17.7759 163.704 18.2922C164.203 18.8084 164.813 19.0666 165.531 19.0666ZM161.822 19.787C160.835 18.8385 160.341 17.5958 160.341 16.059C160.341 14.5222 160.841 13.2855 161.84 12.349C162.839 11.4126 164.075 10.9443 165.55 10.9443C167.036 10.9443 168.279 11.4126 169.278 12.349C170.277 13.2855 170.776 14.5222 170.776 16.059C170.776 17.5958 170.271 18.8385 169.259 19.787C168.26 20.7355 167.018 21.2097 165.531 21.2097C164.045 21.2097 162.808 20.7355 161.822 19.787Z"
          fill="#303D6C"/>
    <path d="M174.843 11.0884V12.5832C175.489 11.4906 176.537 10.9443 177.986 10.9443C179.144 10.9443 180.088 11.3225 180.819 12.0789C181.55 12.8233 181.915 13.8618 181.915 15.1945V21.0656H179.357V15.5547C179.357 14.7743 179.156 14.18 178.754 13.7718C178.352 13.3516 177.804 13.1415 177.109 13.1415C176.415 13.1415 175.86 13.3516 175.446 13.7718C175.044 14.18 174.843 14.7743 174.843 15.5547V21.0656H172.266V11.0884H174.843Z"
          fill="#303D6C"/>
    <path d="M193.075 10.35C192.564 10.35 192.143 10.4821 191.814 10.7462C191.498 10.9983 191.339 11.3525 191.339 11.8088C191.339 12.265 191.455 12.6252 191.686 12.8893C191.93 13.1415 192.247 13.3396 192.637 13.4836C193.027 13.6157 193.453 13.7358 193.916 13.8438C194.379 13.9519 194.842 14.084 195.305 14.24C195.768 14.3961 196.194 14.5882 196.584 14.8163C196.974 15.0445 197.285 15.3806 197.516 15.8249C197.76 16.2571 197.882 16.7854 197.882 17.4097C197.882 18.4423 197.461 19.3307 196.621 20.0751C195.792 20.8195 194.683 21.1917 193.295 21.1917C191.918 21.1917 190.803 20.8735 189.95 20.2372C189.097 19.5889 188.671 18.6824 188.671 17.5178H191.412C191.51 18.6224 192.149 19.1746 193.331 19.1746C193.916 19.1746 194.379 19.0246 194.72 18.7244C195.061 18.4242 195.232 18.028 195.232 17.5358C195.232 17.0315 195.006 16.6353 194.556 16.3472C194.105 16.059 193.557 15.8429 192.911 15.6988C192.277 15.5547 191.638 15.3806 190.992 15.1765C190.346 14.9724 189.798 14.6182 189.347 14.114C188.896 13.5977 188.671 12.9193 188.671 12.0789C188.671 10.9383 189.091 10.0258 189.932 9.34147C190.773 8.65711 191.851 8.31493 193.167 8.31493C194.495 8.31493 195.561 8.61508 196.365 9.2154C197.169 9.80371 197.607 10.7042 197.681 11.9168H194.866C194.817 11.4366 194.635 11.0584 194.318 10.7822C194.001 10.4941 193.587 10.35 193.075 10.35Z"
          fill="#303D6C"/>
    <path d="M202.524 20.8855L198.558 11.0884H201.446L204.022 18.1841L206.745 11.0884H209.432L203.109 25.7841H200.422L202.524 20.8855Z"
          fill="#303D6C"/>
    <path d="M209.822 14.0059C209.822 13.1415 210.194 12.4151 210.937 11.8268C211.68 11.2385 212.667 10.9443 213.898 10.9443C215.128 10.9443 216.115 11.2385 216.858 11.8268C217.602 12.4031 217.998 13.1895 218.046 14.186H215.415C215.342 13.3456 214.818 12.9254 213.843 12.9254C213.356 12.9254 212.978 13.0214 212.71 13.2135C212.442 13.4056 212.308 13.6697 212.308 14.0059C212.308 14.3421 212.509 14.6062 212.911 14.7983C213.313 14.9904 213.8 15.1405 214.373 15.2486C214.946 15.3566 215.512 15.4947 216.073 15.6628C216.645 15.8189 217.133 16.107 217.535 16.5272C217.937 16.9355 218.138 17.4818 218.138 18.1661C218.138 19.0666 217.748 19.799 216.968 20.3633C216.2 20.9276 215.214 21.2097 214.007 21.2097C212.814 21.2097 211.833 20.9336 211.065 20.3813C210.298 19.817 209.877 19.0126 209.804 17.968H212.436C212.533 18.8084 213.075 19.2287 214.062 19.2287C214.537 19.2287 214.921 19.1266 215.214 18.9225C215.506 18.7064 215.652 18.4302 215.652 18.0941C215.652 17.7459 215.451 17.4757 215.049 17.2836C214.647 17.0795 214.16 16.9235 213.587 16.8154C213.015 16.7073 212.442 16.5753 211.869 16.4192C211.309 16.2631 210.828 15.987 210.426 15.5908C210.024 15.1825 209.822 14.6543 209.822 14.0059Z"
          fill="#303D6C"/>
    <path d="M223.711 18.9405H224.935V21.0656H223.308C222.273 21.0656 221.475 20.8315 220.914 20.3633C220.354 19.895 220.074 19.1206 220.074 18.04V13.1595H218.996V11.0884H220.074V8.62109H222.651V11.0884H224.917V13.1595H222.651V18.04C222.651 18.3642 222.73 18.5983 222.888 18.7424C223.047 18.8745 223.321 18.9405 223.711 18.9405Z"
          fill="#303D6C"/>
    <path d="M230.666 21.2097C229.192 21.2097 227.992 20.7415 227.066 19.805C226.14 18.8565 225.677 17.6078 225.677 16.059C225.677 14.5102 226.14 13.2735 227.066 12.349C228.004 11.4126 229.21 10.9443 230.684 10.9443C232.171 10.9443 233.389 11.4005 234.339 12.313C235.29 13.2135 235.765 14.4201 235.765 15.9329C235.765 16.2811 235.74 16.6053 235.692 16.9054H228.309C228.369 17.5538 228.613 18.0761 229.04 18.4723C229.466 18.8685 230.008 19.0666 230.666 19.0666C231.555 19.0666 232.213 18.7064 232.64 17.986H235.418C235.125 18.9345 234.559 19.7089 233.718 20.3092C232.877 20.9096 231.86 21.2097 230.666 21.2097ZM233.097 15.2666C233.06 14.6062 232.81 14.078 232.347 13.6818C231.897 13.2855 231.348 13.0874 230.703 13.0874C230.057 13.0874 229.515 13.2855 229.076 13.6818C228.65 14.078 228.394 14.6062 228.309 15.2666H233.097Z"
          fill="#303D6C"/>
    <path d="M239.822 11.0884V12.5832C240.468 11.4906 241.516 10.9443 242.966 10.9443C243.733 10.9443 244.415 11.1184 245.012 11.4666C245.622 11.8148 246.091 12.313 246.42 12.9614C246.773 12.337 247.254 11.8448 247.863 11.4846C248.485 11.1244 249.179 10.9443 249.947 10.9443C251.153 10.9443 252.121 11.3165 252.852 12.0609C253.596 12.8053 253.967 13.8498 253.967 15.1945V21.0656H251.409V15.5547C251.409 14.7743 251.208 14.18 250.806 13.7718C250.404 13.3516 249.855 13.1415 249.161 13.1415C248.466 13.1415 247.912 13.3516 247.498 13.7718C247.096 14.18 246.895 14.7743 246.895 15.5547V21.0656H244.336V15.5547C244.336 14.7743 244.135 14.18 243.733 13.7718C243.331 13.3516 242.783 13.1415 242.088 13.1415C241.394 13.1415 240.84 13.3516 240.425 13.7718C240.023 14.18 239.822 14.7743 239.822 15.5547V21.0656H237.245V11.0884H239.822Z"
          fill="#303D6C"/>
</svg>
