<svg preserveAspectRatio="xMidYMid meet" viewBox="0 0 28 28" fill="none" xmlns="http://www.w3.org/2000/svg">
    <path d="M17.2971 18.9769L17.2971 18.9758C17.2968 18.6466 17.1677 18.3284 16.9341 18.0917C16.7 17.8544 16.3798 17.7185 16.043 17.7181H16.0418L11.9567 17.7181L11.9555 17.7181C11.6186 17.7185 11.2984 17.8545 11.0644 18.0917C10.8308 18.3284 10.7017 18.6466 10.7014 18.9758V18.9769L10.7014 25.1866C10.7014 25.1868 10.7014 25.187 10.7014 25.1872C10.701 25.4067 10.6146 25.6145 10.4655 25.7656C10.3167 25.9165 10.1177 25.9989 9.91311 25.9992L3.78736 26H3.7873C3.6858 26 3.58496 25.9798 3.49043 25.9401C3.39587 25.9004 3.30907 25.8419 3.23534 25.7672C3.16157 25.6924 3.10236 25.6029 3.06172 25.5035C3.02108 25.4041 3 25.297 3 25.1886V25.1885V13.2256C3.00013 13.1105 3.02396 12.997 3.06957 12.8924C3.11517 12.788 3.18131 12.6953 3.26302 12.6198C3.26308 12.6197 3.26314 12.6197 3.26321 12.6196L13.4746 3.2091L13.4773 3.20663C13.6219 3.07243 13.8083 3.00001 13.9993 3C14.1903 2.99999 14.3767 3.07239 14.5213 3.20658L14.5239 3.20901L24.7367 12.6196C24.8185 12.6951 24.8848 12.7879 24.9304 12.8925C24.976 12.9971 24.9999 13.1108 25 13.2261V25.1886V25.1886C25 25.297 24.9789 25.4041 24.9383 25.5035C24.8977 25.6029 24.8385 25.6924 24.7647 25.7671C24.691 25.8419 24.6042 25.9004 24.5096 25.9401C24.4152 25.9798 24.3144 26 24.2129 26C24.2129 26 24.2128 26 24.2128 26L18.0854 25.9992C17.8808 25.9989 17.6818 25.9165 17.533 25.7656C17.3839 25.6145 17.2975 25.4067 17.2971 25.1872C17.2971 25.187 17.2971 25.1868 17.2971 25.1866L17.2971 18.9769Z"
          stroke="#9095A3" stroke-width="2"/>
</svg>
