<svg preserveAspectRatio="xMidYMid meet" viewBox="0 0 177 24" fill="none" xmlns="http://www.w3.org/2000/svg">
    <path d="M173.622 7.8331V9.4879C174.252 8.29465 175.164 7.69802 176.357 7.69802V10.1296H175.766C175.057 10.1296 174.523 10.3097 174.162 10.6699C173.802 11.0189 173.622 11.6268 173.622 12.4936V17.1878H171.241V7.8331H173.622Z" fill="#303D6C"/>
    <path d="M164.655 17.3229C163.293 17.3229 162.184 16.8838 161.329 16.0058C160.473 15.1165 160.045 13.9457 160.045 12.4936C160.045 11.0414 160.473 9.8819 161.329 9.0151C162.195 8.13704 163.31 7.69802 164.672 7.69802C166.045 7.69802 167.171 8.12579 168.049 8.98133C168.927 9.82562 169.366 10.957 169.366 12.3754C169.366 12.7018 169.344 13.0058 169.299 13.2872H162.477C162.533 13.8951 162.758 14.3848 163.152 14.7562C163.546 15.1277 164.047 15.3135 164.655 15.3135C165.477 15.3135 166.085 14.9758 166.479 14.3003H169.045C168.775 15.1896 168.252 15.9157 167.475 16.4786C166.698 17.0414 165.758 17.3229 164.655 17.3229ZM166.901 11.7506C166.867 11.1314 166.636 10.6361 166.209 10.2646C165.792 9.89316 165.285 9.70742 164.689 9.70742C164.092 9.70742 163.591 9.89316 163.186 10.2646C162.792 10.6361 162.556 11.1314 162.477 11.7506H166.901Z" fill="#303D6C"/>
    <path d="M157.722 15.1952H158.853V17.1877H157.35C156.394 17.1877 155.656 16.9682 155.138 16.5292C154.621 16.0902 154.362 15.3641 154.362 14.3509V9.77492H153.365V7.83307H154.362V5.51972H156.743V7.83307H158.836V9.77492H156.743V14.3509C156.743 14.6549 156.816 14.8744 156.962 15.0095C157.108 15.1333 157.362 15.1952 157.722 15.1952Z" fill="#303D6C"/>
    <path d="M145.111 7.8331V9.23462C145.707 8.21022 146.676 7.69802 148.015 7.69802C149.085 7.69802 149.957 8.05262 150.632 8.76182C151.308 9.45976 151.646 10.4335 151.646 11.683V17.1878H149.282V12.0208C149.282 11.289 149.096 10.7318 148.724 10.3491C148.353 9.95507 147.846 9.75807 147.205 9.75807C146.563 9.75807 146.051 9.95507 145.668 10.3491C145.297 10.7318 145.111 11.289 145.111 12.0208V17.1878H142.73V7.8331H145.111Z" fill="#303D6C"/>
    <path d="M136.144 17.3229C134.782 17.3229 133.673 16.8838 132.818 16.0058C131.962 15.1165 131.534 13.9457 131.534 12.4936C131.534 11.0414 131.962 9.8819 132.818 9.0151C133.684 8.13704 134.799 7.69802 136.161 7.69802C137.534 7.69802 138.66 8.12579 139.538 8.98133C140.416 9.82562 140.855 10.957 140.855 12.3754C140.855 12.7018 140.833 13.0058 140.788 13.2872H133.966C134.022 13.8951 134.247 14.3848 134.641 14.7562C135.035 15.1277 135.536 15.3135 136.144 15.3135C136.966 15.3135 137.574 14.9758 137.968 14.3003H140.534C140.264 15.1896 139.741 15.9157 138.964 16.4786C138.187 17.0414 137.247 17.3229 136.144 17.3229ZM138.39 11.7506C138.356 11.1314 138.125 10.6361 137.697 10.2646C137.281 9.89316 136.774 9.70742 136.178 9.70742C135.581 9.70742 135.08 9.89316 134.675 10.2646C134.281 10.6361 134.045 11.1314 133.966 11.7506H138.39Z" fill="#303D6C"/>
    <path d="M120.296 15.5836C119.136 14.4467 118.557 13.0057 118.557 11.2609C118.557 9.51603 119.136 8.07512 120.296 6.93815C121.467 5.80118 122.896 5.2327 124.585 5.2327C125.868 5.2327 127.005 5.55915 127.996 6.21207C128.998 6.86498 129.712 7.78244 130.14 8.96444H127.286C126.757 7.92878 125.857 7.41095 124.585 7.41095C123.515 7.41095 122.643 7.76555 121.967 8.47475C121.303 9.17269 120.971 10.107 120.971 11.2778C120.971 12.4373 121.303 13.3716 121.967 14.0808C122.643 14.7787 123.515 15.1277 124.585 15.1277C125.846 15.1277 126.746 14.6099 127.286 13.5742H130.14C129.712 14.7562 128.998 15.6737 127.996 16.3266C127.005 16.9683 125.868 17.2891 124.585 17.2891C122.885 17.2891 121.455 16.7206 120.296 15.5836Z" fill="#303D6C"/>
    <path d="M103.151 15.972C102.318 15.0602 101.902 13.9007 101.902 12.4936C101.902 11.0864 102.318 9.93819 103.151 9.04887C103.984 8.1483 105.042 7.69802 106.326 7.69802C107.609 7.69802 108.588 8.2271 109.264 9.28527V7.8331H111.628V17.2553C111.628 18.5949 111.234 19.6869 110.446 20.5311C109.658 21.3867 108.549 21.8145 107.119 21.8145C105.701 21.8145 104.57 21.5161 103.725 20.9195C102.892 20.3342 102.42 19.4955 102.307 18.4036H104.637C104.784 18.8201 105.065 19.1465 105.482 19.3829C105.898 19.6306 106.421 19.7544 107.052 19.7544C107.682 19.7544 108.206 19.5462 108.622 19.1296C109.05 18.7131 109.264 18.0884 109.264 17.2553V15.6174C108.555 16.7544 107.57 17.3229 106.309 17.3229C105.048 17.3229 103.996 16.8726 103.151 15.972ZM108.521 14.5367C109.016 14.0414 109.264 13.366 109.264 12.5104C109.264 11.6549 109.016 10.9851 108.521 10.501C108.026 10.0057 107.446 9.75807 106.782 9.75807C106.118 9.75807 105.538 10.0001 105.042 10.4842C104.558 10.9682 104.316 11.638 104.316 12.4936C104.316 13.3491 104.564 14.0245 105.059 14.5198C105.555 15.0152 106.129 15.2628 106.782 15.2628C107.446 15.2628 108.026 15.0208 108.521 14.5367Z" fill="#303D6C"/>
    <path d="M93.5798 7.8331V9.23462C94.1764 8.21022 95.1445 7.69802 96.4841 7.69802C97.5535 7.69802 98.426 8.05262 99.1014 8.76182C99.7768 9.45976 100.115 10.4335 100.115 11.683V17.1878H97.7505V12.0208C97.7505 11.289 97.5648 10.7318 97.1933 10.3491C96.8218 9.95507 96.3153 9.75807 95.6736 9.75807C95.0319 9.75807 94.5198 9.95507 94.137 10.3491C93.7655 10.7318 93.5798 11.289 93.5798 12.0208V17.1878H91.1989V7.8331H93.5798Z" fill="#303D6C"/>
    <path d="M88.9191 5.45217C88.9191 5.85743 88.7784 6.20077 88.497 6.4822C88.2155 6.76363 87.8722 6.90434 87.4669 6.90434C87.0729 6.90434 86.7352 6.76363 86.4538 6.4822C86.1724 6.20077 86.0317 5.85743 86.0317 5.45217C86.0317 5.04691 86.1724 4.70357 86.4538 4.42214C86.7352 4.14071 87.0729 4 87.4669 4C87.8722 4 88.2155 4.14071 88.497 4.42214C88.7784 4.70357 88.9191 5.04691 88.9191 5.45217ZM86.2849 17.1877V7.83305H88.6658V17.1877H86.2849Z" fill="#303D6C"/>
    <path d="M76.7847 16.0058C75.9291 15.1277 75.5014 13.9626 75.5014 12.5104C75.5014 11.0583 75.9291 9.89316 76.7847 9.0151C77.6402 8.13704 78.749 7.69802 80.1111 7.69802C81.2481 7.69802 82.1993 7.97382 82.9648 8.52542C83.7303 9.07702 84.2425 9.85939 84.5014 10.8725H81.9348C81.6309 10.0958 81.023 9.70742 80.1111 9.70742C79.4245 9.70742 78.8841 9.9607 78.4901 10.4673C78.1074 10.9626 77.916 11.6436 77.916 12.5104C77.916 13.3772 78.1074 14.0639 78.4901 14.5705C78.8841 15.0658 79.4245 15.3135 80.1111 15.3135C81.0117 15.3135 81.6196 14.9195 81.9348 14.1315H84.5014C84.2313 15.1108 83.7078 15.8876 82.9311 16.4617C82.1656 17.0358 81.2256 17.3229 80.1111 17.3229C78.749 17.3229 77.6402 16.8838 76.7847 16.0058Z" fill="#303D6C"/>
    <path d="M73.8803 5.45217C73.8803 5.85743 73.7396 6.20077 73.4581 6.4822C73.1767 6.76363 72.8334 6.90434 72.4281 6.90434C72.0341 6.90434 71.6964 6.76363 71.415 6.4822C71.1335 6.20077 70.9928 5.85743 70.9928 5.45217C70.9928 5.04691 71.1335 4.70357 71.415 4.42214C71.6964 4.14071 72.0341 4 72.4281 4C72.8334 4 73.1767 4.14071 73.4581 4.42214C73.7396 4.70357 73.8803 5.04691 73.8803 5.45217ZM71.2461 17.1877V7.83305H73.627V17.1877H71.2461Z" fill="#303D6C"/>
    <path d="M59.9893 7.8331H62.5222L64.9368 15.1446L67.3346 7.8331H69.8675L66.4228 17.1878H63.434L59.9893 7.8331Z" fill="#303D6C"/>
    <path d="M56.7083 7.8331V9.4879C57.3387 8.29465 58.2505 7.69802 59.4437 7.69802V10.1296H58.8528C58.1436 10.1296 57.6088 10.3097 57.2486 10.6699C56.8884 11.0189 56.7083 11.6268 56.7083 12.4936V17.1878H54.3274V7.8331H56.7083Z" fill="#303D6C"/>
    <path d="M47.7414 17.3229C46.3793 17.3229 45.2705 16.8838 44.4149 16.0058C43.5594 15.1165 43.1316 13.9457 43.1316 12.4936C43.1316 11.0414 43.5594 9.8819 44.4149 9.0151C45.2817 8.13704 46.3962 7.69802 47.7583 7.69802C49.1316 7.69802 50.2574 8.12579 51.1354 8.98133C52.0135 9.82562 52.4525 10.957 52.4525 12.3754C52.4525 12.7018 52.43 13.0058 52.385 13.2872H45.5631C45.6194 13.8951 45.8446 14.3848 46.2386 14.7562C46.6326 15.1277 47.1335 15.3135 47.7414 15.3135C48.5632 15.3135 49.171 14.9758 49.565 14.3003H52.1317C51.8615 15.1896 51.3381 15.9157 50.5613 16.4786C49.7846 17.0414 48.8446 17.3229 47.7414 17.3229ZM49.9872 11.7506C49.9534 11.1314 49.7227 10.6361 49.2949 10.2646C48.8784 9.89316 48.3718 9.70742 47.7752 9.70742C47.1785 9.70742 46.6776 9.89316 46.2723 10.2646C45.8783 10.6361 45.6419 11.1314 45.5631 11.7506H49.9872Z" fill="#303D6C"/>
    <path d="M37.0695 7.14078C36.5967 7.14078 36.2083 7.26461 35.9043 7.51227C35.6117 7.74867 35.4653 8.08075 35.4653 8.50852C35.4653 8.93629 35.5723 9.27401 35.7861 9.52167C36.0113 9.75807 36.304 9.94381 36.6642 10.0789C37.0244 10.2027 37.4184 10.3153 37.8462 10.4166C38.274 10.5179 38.7017 10.6418 39.1295 10.7881C39.5573 10.9344 39.9513 11.1146 40.3115 11.3284C40.6717 11.5423 40.9588 11.8575 41.1727 12.274C41.3978 12.6793 41.5104 13.1746 41.5104 13.76C41.5104 14.7281 41.122 15.5611 40.3453 16.2591C39.5798 16.957 38.5554 17.306 37.2721 17.306C36 17.306 34.97 17.0077 34.182 16.411C33.394 15.8031 33 14.9532 33 13.8613H35.5329C35.6229 14.8969 36.2139 15.4148 37.3059 15.4148C37.8462 15.4148 38.274 15.2741 38.5892 14.9926C38.9044 14.7112 39.062 14.3397 39.062 13.8782C39.062 13.4054 38.8537 13.0339 38.4372 12.7637C38.0207 12.4935 37.5141 12.2909 36.9175 12.1558C36.3321 12.0207 35.7411 11.8575 35.1445 11.6661C34.5479 11.4748 34.0413 11.1427 33.6248 10.6699C33.2083 10.1858 33 9.54981 33 8.76181C33 7.69238 33.3884 6.83684 34.1651 6.19518C34.9419 5.55352 35.9381 5.2327 37.1539 5.2327C38.3809 5.2327 39.3659 5.51412 40.1089 6.07698C40.8519 6.62858 41.2571 7.47287 41.3247 8.60984H38.7243C38.6792 8.15955 38.5104 7.80495 38.2177 7.54604C37.925 7.27587 37.5422 7.14078 37.0695 7.14078Z" fill="#303D6C"/>
    <path d="M2.625 1.5H21.375V20.25H2.625V1.5Z" fill="#9BB2F9"/>
    <path d="M12.572 16.2671C12.7231 16.2464 12.8611 16.211 12.986 16.1608C13.2016 16.0753 13.3685 15.9565 13.4867 15.8042C13.605 15.6519 13.6642 15.477 13.6642 15.2793C13.6642 15.095 13.6103 14.94 13.5025 14.8145C13.3974 14.6889 13.2423 14.5821 13.0373 14.4939C12.9026 14.4352 12.7475 14.3801 12.572 14.3285V16.2671Z" fill="#3C538F"/>
    <path d="M11.9254 12.611V10.7815C11.7878 10.8012 11.6643 10.8338 11.5548 10.8795C11.363 10.957 11.2158 11.0652 11.1133 11.2041C11.0134 11.343 10.9634 11.5006 10.9634 11.6769C10.9582 11.8239 10.9884 11.9521 11.0541 12.0616C11.1225 12.1711 11.2158 12.266 11.3341 12.3461C11.4523 12.4236 11.589 12.4917 11.7441 12.5505C11.803 12.5718 11.8635 12.592 11.9254 12.611Z" fill="#3C538F"/>
    <path fill-rule="evenodd" clip-rule="evenodd" d="M24 5.25H0V22.5H24V5.25ZM11.9254 17.7347V18.6532H12.572V17.7353C13.0935 17.7076 13.5482 17.6102 13.9362 17.4431C14.4041 17.2401 14.7615 16.9556 15.0086 16.5896C15.2583 16.2209 15.3845 15.7855 15.3871 15.2833C15.3845 14.9413 15.3227 14.6382 15.2018 14.3737C15.0835 14.1092 14.9166 13.8795 14.7011 13.6845C14.4855 13.4895 14.2306 13.3252 13.9362 13.1916C13.6418 13.058 13.3185 12.9512 12.9663 12.871L12.572 12.7752V10.7786C12.8386 10.8138 13.0594 10.8968 13.2344 11.0278C13.4736 11.2068 13.609 11.4579 13.6405 11.7811H15.2767C15.2688 11.2923 15.14 10.8622 14.8903 10.4908C14.6406 10.1195 14.291 9.82968 13.8416 9.62132C13.4709 9.44845 13.0477 9.34729 12.572 9.31784V8.39516H11.9254V9.32136C11.4751 9.35479 11.0651 9.45478 10.6953 9.62132C10.2327 9.82968 9.8687 10.1195 9.60323 10.4908C9.34038 10.8622 9.21028 11.2963 9.2129 11.7931C9.21028 12.3995 9.40609 12.8817 9.80036 13.2397C10.1946 13.5977 10.7321 13.8608 11.4129 14.0291L11.9254 14.1599V16.2712C11.7515 16.2503 11.5898 16.2108 11.4405 16.1528C11.2092 16.0593 11.0239 15.9217 10.8846 15.7401C10.7479 15.5558 10.6704 15.326 10.652 15.0509H9C9.01314 15.6413 9.15376 16.1368 9.42186 16.5375C9.69259 16.9355 10.0685 17.2361 10.5495 17.4391C10.9503 17.6074 11.409 17.7059 11.9254 17.7347Z" fill="#3C538F"/>
</svg>
