<svg preserveAspectRatio="xMidYMid meet" viewBox="0 0 252 32" fill="none" xmlns="http://www.w3.org/2000/svg">
    <path d="M0 20.55L18.3823 2L36.8346 20.55L34.0683 23.3371L34.4361 22.965L18.3823 6.82125L2.40877 22.9807L0 20.55Z"
          fill="#3A5290"/>
    <path d="M3.14931 23.728L3.13374 23.7438L2.3897 23L2.40877 22.9807L3.14931 23.728Z" fill="#3A5290"/>
    <path d="M33.7001 23.708L31.3024 26.1237L18.3823 13.13L5.52343 26.1237L3.14931 23.728L18.3823 8.30875L33.7001 23.708Z"
          fill="#3A5290"/>
    <path d="M33.7001 23.708L33.7008 23.7087L34.0683 23.3371L33.7001 23.708Z" fill="#3A5290"/>
    <path d="M22.654 22.125V30H19.2576V22.125H22.654Z" fill="#3A5290"/>
    <path d="M18.2335 22.125V30H14.8809V22.125H18.2335Z" fill="#3A5290"/>
    <path fill-rule="evenodd" clip-rule="evenodd"
          d="M60.005 24.75C61.082 25.3746 62.305 25.7036 63.5501 25.7036C64.7953 25.7036 66.0183 25.3746 67.0953 24.75C68.0959 24.1031 68.901 23.1955 69.4237 22.125C69.9625 21.0035 70.2351 19.7728 70.2203 18.5287C70.238 17.2844 69.9652 16.0531 69.4237 14.9325C68.9091 13.8566 68.1022 12.947 67.0953 12.3075C66.3199 11.8058 65.4468 11.4745 64.5337 11.3354C63.6206 11.1964 62.6884 11.2528 61.7987 11.501C60.9091 11.7492 60.0823 12.1834 59.3732 12.775C58.6641 13.3666 58.0888 14.102 57.6853 14.9325C57.1502 16.0363 56.8804 17.2498 56.8975 18.4762C56.8827 19.7203 57.1553 20.951 57.6941 22.0725C58.204 23.16 59.0035 24.0864 60.005 24.75ZM65.5984 22.3C64.9976 22.7051 64.283 22.9074 63.5589 22.8775C62.8327 22.9021 62.1169 22.7003 61.5106 22.3C60.9493 21.9083 60.5071 21.3693 60.2326 20.7425C59.9304 20.0378 59.7784 19.2779 59.7862 18.5113C59.7749 17.7471 59.9271 16.9893 60.2326 16.2887C60.5023 15.659 60.9455 15.1188 61.5106 14.7313C62.1158 14.3279 62.8318 14.123 63.5589 14.145C64.283 14.1151 64.9976 14.3174 65.5984 14.7225C66.1635 15.1101 66.6067 15.6502 66.8765 16.28C67.182 16.9806 67.3342 17.7383 67.3229 18.5025C67.3307 19.2692 67.1786 20.0291 66.8765 20.7337C66.5979 21.351 66.156 21.8804 65.5984 22.265V22.3Z"
          fill="#3A5290"/>
    <path d="M77.0305 25.66C76.113 25.6544 75.2111 25.423 74.4044 24.9863C73.5097 24.4912 72.7725 23.7544 72.2773 22.86C71.7424 21.8227 71.4804 20.6664 71.5158 19.5V11.485H74.4044V19.5C74.3518 20.4101 74.6564 21.3047 75.2535 21.9938C75.5242 22.2841 75.8543 22.5125 76.2214 22.6635C76.5885 22.8146 76.9839 22.8846 77.3806 22.8688C77.9515 22.8796 78.5144 22.7344 79.0088 22.4488C79.4921 22.157 79.8905 21.7437 80.1642 21.25C80.4725 20.7194 80.6271 20.1134 80.6106 19.5V11.4588H83.508V25.4587H80.6632V24.2775C80.3873 24.5167 80.0948 24.736 79.7878 24.9337C78.9612 25.4441 78.0013 25.6969 77.0305 25.66Z"
          fill="#3A5290"/>
    <path d="M86.1078 7.31125V25.4675H97.96V22.5362H89.0052V7.31125H86.1078Z" fill="#3A5290"/>
    <path fill-rule="evenodd" clip-rule="evenodd"
          d="M104.42 25.7038C103.202 25.7317 102.002 25.4 100.971 24.75C99.9725 24.0958 99.1707 23.1823 98.6515 22.1075C98.1127 20.986 97.8401 19.7553 97.855 18.5113C97.8373 17.2669 98.11 16.0356 98.6515 14.915C99.1483 13.8462 99.9334 12.9372 100.919 12.29C101.959 11.6137 103.18 11.2689 104.42 11.3013C105.42 11.2756 106.41 11.5109 107.291 11.9837C107.668 12.191 108.021 12.4405 108.342 12.7275V11.5025H111.239V25.5025H108.342V24.2862C108.021 24.5704 107.668 24.817 107.291 25.0212C106.41 25.4941 105.42 25.7294 104.42 25.7038ZM104.683 22.8863C105.407 22.915 106.121 22.7127 106.722 22.3087V22.265C107.279 21.8828 107.72 21.3565 108 20.7425C108.302 20.0378 108.454 19.2779 108.447 18.5113C108.458 17.7471 108.306 16.9893 108 16.2887C107.731 15.659 107.287 15.1188 106.722 14.7313C106.121 14.3273 105.407 14.125 104.683 14.1538C103.947 14.1315 103.223 14.3362 102.608 14.74C102.027 15.1279 101.566 15.6704 101.278 16.3063C100.954 16.9988 100.792 17.7558 100.805 18.52C100.798 19.2864 100.96 20.045 101.278 20.7425C101.569 21.3744 102.029 21.9135 102.608 22.3C103.223 22.7038 103.947 22.9085 104.683 22.8863Z"
          fill="#3A5290"/>
    <path d="M116.325 11.485H113.427V25.485H116.325V17.4962C116.315 16.8868 116.459 16.2848 116.745 15.7463C117.023 15.2501 117.428 14.8365 117.918 14.5475C118.417 14.2667 118.982 14.1219 119.555 14.1275C119.952 14.1081 120.348 14.1765 120.716 14.3277C121.084 14.479 121.413 14.7094 121.682 15.0025C122.281 15.6709 122.595 16.547 122.557 17.4437V25.4413H125.446V17.3913C125.486 16.2268 125.214 15.0728 124.658 14.0488C124.173 13.1703 123.439 12.4548 122.548 11.9925C121.751 11.5298 120.845 11.2854 119.922 11.2837C118.952 11.2468 117.992 11.4997 117.165 12.01C116.858 12.2078 116.566 12.4271 116.29 12.6662L116.325 11.485Z"
          fill="#3A5290"/>
    <path fill-rule="evenodd" clip-rule="evenodd"
          d="M133.228 25.7038C132.009 25.7307 130.81 25.399 129.779 24.75C128.789 24.0991 127.991 23.1959 127.468 22.1338C126.929 21.0122 126.657 19.7815 126.671 18.5375C126.651 17.292 126.927 16.0595 127.477 14.9412C127.97 13.8731 128.752 12.964 129.735 12.3162C130.775 11.6399 131.996 11.2951 133.236 11.3275C134.679 11.2785 136.084 11.7897 137.158 12.7537V6.375H140.055V25.5025H137.149V24.2862C136.828 24.5704 136.476 24.817 136.099 25.0212C135.218 25.4961 134.228 25.7314 133.228 25.7038ZM133.49 22.8863C134.214 22.9162 134.929 22.7138 135.53 22.3087V22.265C136.088 21.8851 136.531 21.3582 136.808 20.7425C137.113 20.0384 137.268 19.2785 137.263 18.5113C137.272 17.7465 137.116 16.9887 136.808 16.2887C136.541 15.6572 136.097 15.1163 135.53 14.7313C134.929 14.3262 134.214 14.1238 133.49 14.1538C132.755 14.1326 132.031 14.3372 131.416 14.74C130.837 15.1303 130.377 15.6721 130.085 16.3063C129.769 17.0008 129.61 17.7569 129.621 18.52C129.615 19.2855 129.773 20.0434 130.085 20.7425C130.38 21.3725 130.839 21.9108 131.416 22.3C132.031 22.7028 132.755 22.9074 133.49 22.8863Z"
          fill="#3A5290"/>
    <path d="M42.3405 9.7L44.4326 7.5475L50.6913 14.005L56.95 7.5475L59.0421 9.7L52.2319 16.7V25.6687H49.282V16.875L42.3405 9.7Z"
          fill="#3A5290"/>
    <path d="M157.125 5.5V26.5H158V5.5H157.125Z" fill="#3A5290"/>
    <path d="M176.08 23.14C175.147 23.14 174.307 22.98 173.56 22.66C172.813 22.3267 172.227 21.86 171.8 21.26C171.373 20.66 171.16 19.96 171.16 19.16H173.6C173.653 19.76 173.887 20.2533 174.3 20.64C174.727 21.0267 175.32 21.22 176.08 21.22C176.867 21.22 177.48 21.0333 177.92 20.66C178.36 20.2733 178.58 19.78 178.58 19.18C178.58 18.7133 178.44 18.3333 178.16 18.04C177.893 17.7467 177.553 17.52 177.14 17.36C176.74 17.2 176.18 17.0267 175.46 16.84C174.553 16.6 173.813 16.36 173.24 16.12C172.68 15.8667 172.2 15.48 171.8 14.96C171.4 14.44 171.2 13.7467 171.2 12.88C171.2 12.08 171.4 11.38 171.8 10.78C172.2 10.18 172.76 9.72 173.48 9.4C174.2 9.08 175.033 8.92 175.98 8.92C177.327 8.92 178.427 9.26 179.28 9.94C180.147 10.6067 180.627 11.5267 180.72 12.7H178.2C178.16 12.1933 177.92 11.76 177.48 11.4C177.04 11.04 176.46 10.86 175.74 10.86C175.087 10.86 174.553 11.0267 174.14 11.36C173.727 11.6933 173.52 12.1733 173.52 12.8C173.52 13.2267 173.647 13.58 173.9 13.86C174.167 14.1267 174.5 14.34 174.9 14.5C175.3 14.66 175.847 14.8333 176.54 15.02C177.46 15.2733 178.207 15.5267 178.78 15.78C179.367 16.0333 179.86 16.4267 180.26 16.96C180.673 17.48 180.88 18.18 180.88 19.06C180.88 19.7667 180.687 20.4333 180.3 21.06C179.927 21.6867 179.373 22.1933 178.64 22.58C177.92 22.9533 177.067 23.14 176.08 23.14ZM193.67 17.22C193.67 17.6333 193.644 18.0067 193.59 18.34H185.17C185.237 19.22 185.564 19.9267 186.15 20.46C186.737 20.9933 187.457 21.26 188.31 21.26C189.537 21.26 190.404 20.7467 190.91 19.72H193.37C193.037 20.7333 192.43 21.5667 191.55 22.22C190.684 22.86 189.604 23.18 188.31 23.18C187.257 23.18 186.31 22.9467 185.47 22.48C184.644 22 183.99 21.3333 183.51 20.48C183.044 19.6133 182.81 18.6133 182.81 17.48C182.81 16.3467 183.037 15.3533 183.49 14.5C183.957 13.6333 184.604 12.9667 185.43 12.5C186.27 12.0333 187.23 11.8 188.31 11.8C189.35 11.8 190.277 12.0267 191.09 12.48C191.904 12.9333 192.537 13.5733 192.99 14.4C193.444 15.2133 193.67 16.1533 193.67 17.22ZM191.29 16.5C191.277 15.66 190.977 14.9867 190.39 14.48C189.804 13.9733 189.077 13.72 188.21 13.72C187.424 13.72 186.75 13.9733 186.19 14.48C185.63 14.9733 185.297 15.6467 185.19 16.5H191.29ZM198.574 13.84V19.94C198.574 20.3533 198.667 20.6533 198.854 20.84C199.054 21.0133 199.387 21.1 199.854 21.1H201.254V23H199.454C198.427 23 197.641 22.76 197.094 22.28C196.547 21.8 196.274 21.02 196.274 19.94V13.84H194.974V11.98H196.274V9.24H198.574V11.98H201.254V13.84H198.574ZM206.015 13.84V19.94C206.015 20.3533 206.109 20.6533 206.295 20.84C206.495 21.0133 206.829 21.1 207.295 21.1H208.695V23H206.895C205.869 23 205.082 22.76 204.535 22.28C203.989 21.8 203.715 21.02 203.715 19.94V13.84H202.415V11.98H203.715V9.24H206.015V11.98H208.695V13.84H206.015ZM211.957 10.52C211.544 10.52 211.197 10.38 210.917 10.1C210.637 9.82 210.497 9.47333 210.497 9.06C210.497 8.64667 210.637 8.3 210.917 8.02C211.197 7.74 211.544 7.6 211.957 7.6C212.357 7.6 212.697 7.74 212.977 8.02C213.257 8.3 213.397 8.64667 213.397 9.06C213.397 9.47333 213.257 9.82 212.977 10.1C212.697 10.38 212.357 10.52 211.957 10.52ZM213.077 11.98V23H210.797V11.98H213.077ZM221.63 11.8C222.497 11.8 223.27 11.98 223.95 12.34C224.644 12.7 225.184 13.2333 225.57 13.94C225.957 14.6467 226.15 15.5 226.15 16.5V23H223.89V16.84C223.89 15.8533 223.644 15.1 223.15 14.58C222.657 14.0467 221.984 13.78 221.13 13.78C220.277 13.78 219.597 14.0467 219.09 14.58C218.597 15.1 218.35 15.8533 218.35 16.84V23H216.07V11.98H218.35V13.24C218.724 12.7867 219.197 12.4333 219.77 12.18C220.357 11.9267 220.977 11.8 221.63 11.8ZM233.499 11.8C234.352 11.8 235.105 11.9733 235.759 12.32C236.425 12.6533 236.945 13.0733 237.319 13.58V11.98H239.619V23.18C239.619 24.1933 239.405 25.0933 238.979 25.88C238.552 26.68 237.932 27.3067 237.119 27.76C236.319 28.2133 235.359 28.44 234.239 28.44C232.745 28.44 231.505 28.0867 230.519 27.38C229.532 26.6867 228.972 25.74 228.839 24.54H231.099C231.272 25.1133 231.639 25.5733 232.199 25.92C232.772 26.28 233.452 26.46 234.239 26.46C235.159 26.46 235.899 26.18 236.459 25.62C237.032 25.06 237.319 24.2467 237.319 23.18V21.34C236.932 21.86 236.405 22.3 235.739 22.66C235.085 23.0067 234.339 23.18 233.499 23.18C232.539 23.18 231.659 22.94 230.859 22.46C230.072 21.9667 229.445 21.2867 228.979 20.42C228.525 19.54 228.299 18.5467 228.299 17.44C228.299 16.3333 228.525 15.3533 228.979 14.5C229.445 13.6467 230.072 12.9867 230.859 12.52C231.659 12.04 232.539 11.8 233.499 11.8ZM237.319 17.48C237.319 16.72 237.159 16.06 236.839 15.5C236.532 14.94 236.125 14.5133 235.619 14.22C235.112 13.9267 234.565 13.78 233.979 13.78C233.392 13.78 232.845 13.9267 232.339 14.22C231.832 14.5 231.419 14.92 231.099 15.48C230.792 16.0267 230.639 16.68 230.639 17.44C230.639 18.2 230.792 18.8667 231.099 19.44C231.419 20.0133 231.832 20.4533 232.339 20.76C232.859 21.0533 233.405 21.2 233.979 21.2C234.565 21.2 235.112 21.0533 235.619 20.76C236.125 20.4667 236.532 20.04 236.839 19.48C237.159 18.9067 237.319 18.24 237.319 17.48ZM246.613 23.18C245.747 23.18 244.967 23.0267 244.273 22.72C243.593 22.4 243.053 21.9733 242.653 21.44C242.253 20.8933 242.04 20.2867 242.013 19.62H244.373C244.413 20.0867 244.633 20.48 245.033 20.8C245.447 21.1067 245.96 21.26 246.573 21.26C247.213 21.26 247.707 21.14 248.053 20.9C248.413 20.6467 248.593 20.3267 248.593 19.94C248.593 19.5267 248.393 19.22 247.993 19.02C247.607 18.82 246.987 18.6 246.133 18.36C245.307 18.1333 244.633 17.9133 244.113 17.7C243.593 17.4867 243.14 17.16 242.753 16.72C242.38 16.28 242.193 15.7 242.193 14.98C242.193 14.3933 242.367 13.86 242.713 13.38C243.06 12.8867 243.553 12.5 244.193 12.22C244.847 11.94 245.593 11.8 246.433 11.8C247.687 11.8 248.693 12.12 249.453 12.76C250.227 13.3867 250.64 14.2467 250.693 15.34H248.413C248.373 14.8467 248.173 14.4533 247.813 14.16C247.453 13.8667 246.967 13.72 246.353 13.72C245.753 13.72 245.293 13.8333 244.973 14.06C244.653 14.2867 244.493 14.5867 244.493 14.96C244.493 15.2533 244.6 15.5 244.813 15.7C245.027 15.9 245.287 16.06 245.593 16.18C245.9 16.2867 246.353 16.4267 246.953 16.6C247.753 16.8133 248.407 17.0333 248.913 17.26C249.433 17.4733 249.88 17.7933 250.253 18.22C250.627 18.6467 250.82 19.2133 250.833 19.92C250.833 20.5467 250.66 21.1067 250.313 21.6C249.967 22.0933 249.473 22.48 248.833 22.76C248.207 23.04 247.467 23.18 246.613 23.18Z"
          fill="#3A5290"/>
</svg>
